<?xml version="1.0" standalone="yes"?>

<svg version="1.1" viewBox="0.0 0.0 960.0 720.0" fill="none" stroke="none" stroke-linecap="square" stroke-miterlimit="10" xmlns="http://www.w3.org/2000/svg" xmlns:xlink="http://www.w3.org/1999/xlink"><clipPath id="p.0"><path d="m0 0l960.0 0l0 720.0l-960.0 0l0 -720.0z" clip-rule="nonzero"></path></clipPath><g clip-path="url(#p.0)"><path fill="#000000" fill-opacity="0.0" d="m0 0l960.0 0l0 720.0l-960.0 0z" fill-rule="nonzero"></path><path fill="#cfe2f3" d="m576.2507 561.6457l0 0c0 15.47699 29.4505 28.02362 65.77954 28.02362c36.32898 0 65.77948 -12.546631 65.77948 -28.02362l0 56.04724c0 15.47699 -29.4505 28.02362 -65.77948 28.02362c-36.32904 0 -65.77954 -12.546631 -65.77954 -28.02362z" fill-rule="nonzero"></path><path fill="#e2edf7" d="m576.2507 561.6457l0 0c0 -15.477051 29.4505 -28.02362 65.77954 -28.02362c36.32898 0 65.77948 12.54657 65.77948 28.02362l0 0c0 15.47699 -29.4505 28.02362 -65.77948 28.02362c-36.32904 0 -65.77954 -12.546631 -65.77954 -28.02362z" fill-rule="nonzero"></path><path fill="#000000" fill-opacity="0.0" d="m707.8097 561.6457l0 0c0 15.47699 -29.4505 28.02362 -65.77948 28.02362c-36.32904 0 -65.77954 -12.546631 -65.77954 -28.02362l0 0c0 -15.477051 29.4505 -28.02362 65.77954 -28.02362c36.32898 0 65.77948 12.54657 65.77948 28.02362l0 56.04724c0 15.47699 -29.4505 28.02362 -65.77948 28.02362c-36.32904 0 -65.77954 -12.546631 -65.77954 -28.02362l0 -56.04724" fill-rule="nonzero"></path><path stroke="#000000" stroke-width="1.0" stroke-linejoin="round" stroke-linecap="butt" d="m707.8097 561.6457l0 0c0 15.47699 -29.4505 28.02362 -65.77948 28.02362c-36.32904 0 -65.77954 -12.546631 -65.77954 -28.02362l0 0c0 -15.477051 29.4505 -28.02362 65.77954 -28.02362c36.32898 0 65.77948 12.54657 65.77948 28.02362l0 56.04724c0 15.47699 -29.4505 28.02362 -65.77948 28.02362c-36.32904 0 -65.77954 -12.546631 -65.77954 -28.02362l0 -56.04724" fill-rule="nonzero"></path><path fill="#cfe2f3" d="m493.93832 561.6457l0 0c0 15.47699 29.45047 28.02362 65.77951 28.02362c36.32904 0 65.77954 -12.546631 65.77954 -28.02362l0 56.04724c0 15.47699 -29.4505 28.02362 -65.77954 28.02362c-36.32904 0 -65.77951 -12.546631 -65.77951 -28.02362z" fill-rule="nonzero"></path><path fill="#e2edf7" d="m493.93832 561.6457l0 0c0 -15.477051 29.45047 -28.02362 65.77951 -28.02362c36.32904 0 65.77954 12.54657 65.77954 28.02362l0 0c0 15.47699 -29.4505 28.02362 -65.77954 28.02362c-36.32904 0 -65.77951 -12.546631 -65.77951 -28.02362z" fill-rule="nonzero"></path><path fill="#000000" fill-opacity="0.0" d="m625.4974 561.6457l0 0c0 15.47699 -29.4505 28.02362 -65.77954 28.02362c-36.32904 0 -65.77951 -12.546631 -65.77951 -28.02362l0 0c0 -15.477051 29.45047 -28.02362 65.77951 -28.02362c36.32904 0 65.77954 12.54657 65.77954 28.02362l0 56.04724c0 15.47699 -29.4505 28.02362 -65.77954 28.02362c-36.32904 0 -65.77951 -12.546631 -65.77951 -28.02362l0 -56.04724" fill-rule="nonzero"></path><path stroke="#000000" stroke-width="1.0" stroke-linejoin="round" stroke-linecap="butt" d="m625.4974 561.6457l0 0c0 15.47699 -29.4505 28.02362 -65.77954 28.02362c-36.32904 0 -65.77951 -12.546631 -65.77951 -28.02362l0 0c0 -15.477051 29.45047 -28.02362 65.77951 -28.02362c36.32904 0 65.77954 12.54657 65.77954 28.02362l0 56.04724c0 15.47699 -29.4505 28.02362 -65.77954 28.02362c-36.32904 0 -65.77951 -12.546631 -65.77951 -28.02362l0 -56.04724" fill-rule="nonzero"></path><path fill="#cfe2f3" d="m399.76248 561.6457l0 0c0 15.47699 29.45047 28.02362 65.77951 28.02362c36.32904 0 65.77954 -12.546631 65.77954 -28.02362l0 56.04724c0 15.47699 -29.4505 28.02362 -65.77954 28.02362c-36.32904 0 -65.77951 -12.546631 -65.77951 -28.02362z" fill-rule="nonzero"></path><path fill="#e2edf7" d="m399.76248 561.6457l0 0c0 -15.477051 29.45047 -28.02362 65.77951 -28.02362c36.32904 0 65.77954 12.54657 65.77954 28.02362l0 0c0 15.47699 -29.4505 28.02362 -65.77954 28.02362c-36.32904 0 -65.77951 -12.546631 -65.77951 -28.02362z" fill-rule="nonzero"></path><path fill="#000000" fill-opacity="0.0" d="m531.32153 561.6457l0 0c0 15.47699 -29.4505 28.02362 -65.77954 28.02362c-36.32904 0 -65.77951 -12.546631 -65.77951 -28.02362l0 0c0 -15.477051 29.45047 -28.02362 65.77951 -28.02362c36.32904 0 65.77954 12.54657 65.77954 28.02362l0 56.04724c0 15.47699 -29.4505 28.02362 -65.77954 28.02362c-36.32904 0 -65.77951 -12.546631 -65.77951 -28.02362l0 -56.04724" fill-rule="nonzero"></path><path stroke="#000000" stroke-width="1.0" stroke-linejoin="round" stroke-linecap="butt" d="m531.32153 561.6457l0 0c0 15.47699 -29.4505 28.02362 -65.77954 28.02362c-36.32904 0 -65.77951 -12.546631 -65.77951 -28.02362l0 0c0 -15.477051 29.45047 -28.02362 65.77951 -28.02362c36.32904 0 65.77954 12.54657 65.77954 28.02362l0 56.04724c0 15.47699 -29.4505 28.02362 -65.77954 28.02362c-36.32904 0 -65.77951 -12.546631 -65.77951 -28.02362l0 -56.04724" fill-rule="nonzero"></path><path fill="#cfe2f3" d="m299.65747 561.6457l0 0c0 15.47699 29.4505 28.02362 65.77954 28.02362c36.32904 0 65.77951 -12.546631 65.77951 -28.02362l0 56.04724c0 15.47699 -29.45047 28.02362 -65.77951 28.02362c-36.32904 0 -65.77954 -12.546631 -65.77954 -28.02362z" fill-rule="nonzero"></path><path fill="#e2edf7" d="m299.65747 561.6457l0 0c0 -15.477051 29.4505 -28.02362 65.77954 -28.02362c36.32904 0 65.77951 12.54657 65.77951 28.02362l0 0c0 15.47699 -29.45047 28.02362 -65.77951 28.02362c-36.32904 0 -65.77954 -12.546631 -65.77954 -28.02362z" fill-rule="nonzero"></path><path fill="#000000" fill-opacity="0.0" d="m431.21652 561.6457l0 0c0 15.47699 -29.45047 28.02362 -65.77951 28.02362c-36.32904 0 -65.77954 -12.546631 -65.77954 -28.02362l0 0c0 -15.477051 29.4505 -28.02362 65.77954 -28.02362c36.32904 0 65.77951 12.54657 65.77951 28.02362l0 56.04724c0 15.47699 -29.45047 28.02362 -65.77951 28.02362c-36.32904 0 -65.77954 -12.546631 -65.77954 -28.02362l0 -56.04724" fill-rule="nonzero"></path><path stroke="#000000" stroke-width="1.0" stroke-linejoin="round" stroke-linecap="butt" d="m431.21652 561.6457l0 0c0 15.47699 -29.45047 28.02362 -65.77951 28.02362c-36.32904 0 -65.77954 -12.546631 -65.77954 -28.02362l0 0c0 -15.477051 29.4505 -28.02362 65.77954 -28.02362c36.32904 0 65.77951 12.54657 65.77951 28.02362l0 56.04724c0 15.47699 -29.45047 28.02362 -65.77951 28.02362c-36.32904 0 -65.77954 -12.546631 -65.77954 -28.02362l0 -56.04724" fill-rule="nonzero"></path><path fill="#cfe2f3" d="m387.7555 67.352455l0 0c-1.8152466 -12.169113 4.144562 -24.215797 15.350464 -31.028198c11.205902 -6.8124027 25.692627 -7.195778 37.312897 -0.987442l0 0c4.116272 -7.0756264 11.650238 -11.960859 20.322998 -13.178009c8.672791 -1.2171497 17.465729 1.3767414 23.719177 6.997074l0 0c3.5065002 -6.4152184 10.391632 -10.725426 18.212158 -11.401136c7.820526 -0.6757107 15.469635 2.378706 20.233063 8.079384l0 0c6.335022 -6.8001156 16.414246 -9.663246 25.876343 -7.3505c9.462036 2.3127441 16.607483 9.385977 18.344421 18.15907l0 0c7.7614746 1.931263 14.226685 6.840786 17.725098 13.460106c3.4984741 6.61932 3.6869507 14.299099 0.51690674 21.055126l0 0c7.6428223 9.074081 9.430664 21.165184 4.69635 31.761124c-4.734375 10.59594 -15.279541 18.104797 -27.700378 19.724403c-0.087524414 9.944664 -6.066284 19.06977 -15.631714 23.858116c-9.565491 4.78833 -21.223938 4.4921722 -30.481812 -0.7743225c-3.9433594 11.910461 -15.042572 20.674057 -28.50238 22.504608c-13.459808 1.8305359 -26.867249 -3.6001282 -34.42987 -13.94577c-9.270172 5.0993958 -20.393585 6.5683746 -30.861084 4.0755615c-10.467468 -2.4928284 -19.397247 -8.737457 -24.774963 -17.325241l0 0c-9.472961 1.0112305 -18.631989 -3.4659424 -22.931488 -11.209534c-4.29953 -7.743576 -2.8242798 -17.105133 3.6936035 -23.438568l0 0c-8.450134 -4.536972 -12.761902 -13.539818 -10.68689 -22.31392c2.0750122 -8.774101 10.066589 -15.331215 19.807465 -16.252052z" fill-rule="nonzero"></path><path fill="#000000" fill-opacity="0.0" d="m378.44766 106.387436l0 0c3.9876404 2.141014 8.594299 3.1122208 13.201447 2.7832413m6.034363 31.865639c1.9812622 -0.21150208 3.9232483 -0.65937805 5.7759094 -1.3320618m49.85739 14.581177c-1.3934937 -1.9062653 -2.5601807 -3.9432983 -3.480194 -6.076355m66.414825 -2.4828339l0 0c0.7189331 -2.171463 1.1847534 -4.406357 1.3896484 -6.667404m44.722168 -16.41555c0.09320068 -10.587639 -6.4989624 -20.281784 -16.944946 -24.918526m39.94873 -26.565887c-1.6917114 3.6052856 -4.274292 6.8034897 -7.545227 9.343842m-10.69519 -43.86002l0 0c0.288208 1.4558983 0.42163086 2.9336777 0.39831543 4.412857m-44.618347 -15.220985l0 0c-1.5802612 1.696291 -2.8822021 3.5918732 -3.8652954 5.6277256m-34.58029 -2.306713l0 0c-0.84213257 1.5407276 -1.4710083 3.1710835 -1.8721008 4.853506m-42.170685 1.3275566l0 0c2.4588318 1.3136787 4.733612 2.8948326 6.7743225 4.708729m-59.43701 27.307083l0 0c0.2501831 1.6772156 0.6454773 3.3337631 1.1822205 4.954117" fill-rule="nonzero"></path><path stroke="#000000" stroke-width="1.0" stroke-linejoin="round" stroke-linecap="butt" d="m387.7555 67.352455l0 0c-1.8152466 -12.169113 4.144562 -24.215797 15.350464 -31.028198c11.205902 -6.8124027 25.692627 -7.195778 37.312897 -0.987442l0 0c4.116272 -7.0756264 11.650238 -11.960859 20.322998 -13.178009c8.672791 -1.2171497 17.465729 1.3767414 23.719177 6.997074l0 0c3.5065002 -6.4152184 10.391632 -10.725426 18.212158 -11.401136c7.820526 -0.6757107 15.469635 2.378706 20.233063 8.079384l0 0c6.335022 -6.8001156 16.414246 -9.663246 25.876343 -7.3505c9.462036 2.3127441 16.607483 9.385977 18.344421 18.15907l0 0c7.7614746 1.931263 14.226685 6.840786 17.725098 13.460106c3.4984741 6.61932 3.6869507 14.299099 0.51690674 21.055126l0 0c7.6428223 9.074081 9.430664 21.165184 4.69635 31.761124c-4.734375 10.59594 -15.279541 18.104797 -27.700378 19.724403c-0.087524414 9.944664 -6.066284 19.06977 -15.631714 23.858116c-9.565491 4.78833 -21.223938 4.4921722 -30.481812 -0.7743225c-3.9433594 11.910461 -15.042572 20.674057 -28.50238 22.504608c-13.459808 1.8305359 -26.867249 -3.6001282 -34.42987 -13.94577c-9.270172 5.0993958 -20.393585 6.5683746 -30.861084 4.0755615c-10.467468 -2.4928284 -19.397247 -8.737457 -24.774963 -17.325241l0 0c-9.472961 1.0112305 -18.631989 -3.4659424 -22.931488 -11.209534c-4.29953 -7.743576 -2.8242798 -17.105133 3.6936035 -23.438568l0 0c-8.450134 -4.536972 -12.761902 -13.539818 -10.68689 -22.31392c2.0750122 -8.774101 10.066589 -15.331215 19.807465 -16.252052z" fill-rule="nonzero"></path><path stroke="#000000" stroke-width="1.0" stroke-linejoin="round" stroke-linecap="butt" d="m378.44766 106.387436l0 0c3.9876404 2.141014 8.594299 3.1122208 13.201447 2.7832413m6.034363 31.865639c1.9812622 -0.21150208 3.9232483 -0.65937805 5.7759094 -1.3320618m49.85739 14.581177c-1.3934937 -1.9062653 -2.5601807 -3.9432983 -3.480194 -6.076355m66.414825 -2.4828339l0 0c0.7189331 -2.171463 1.1847534 -4.406357 1.3896484 -6.667404m44.722168 -16.41555c0.09320068 -10.587639 -6.4989624 -20.281784 -16.944946 -24.918526m39.94873 -26.565887c-1.6917114 3.6052856 -4.274292 6.8034897 -7.545227 9.343842m-10.69519 -43.86002l0 0c0.288208 1.4558983 0.42163086 2.9336777 0.39831543 4.412857m-44.618347 -15.220985l0 0c-1.5802612 1.696291 -2.8822021 3.5918732 -3.8652954 5.6277256m-34.58029 -2.306713l0 0c-0.84213257 1.5407276 -1.4710083 3.1710835 -1.8721008 4.853506m-42.170685 1.3275566l0 0c2.4588318 1.3136787 4.733612 2.8948326 6.7743225 4.708729m-59.43701 27.307083l0 0c0.2501831 1.6772156 0.6454773 3.3337631 1.1822205 4.954117" fill-rule="nonzero"></path><path fill="#cfe2f3" d="m331.90683 252.08398l0 0c0 15.47702 29.4505 28.02362 65.77951 28.02362c36.32904 0 65.77954 -12.5466 65.77954 -28.02362l0 56.04724c0 15.47702 -29.4505 28.02362 -65.77954 28.02362c-36.32901 0 -65.77951 -12.5466 -65.77951 -28.02362z" fill-rule="nonzero"></path><path fill="#e2edf7" d="m331.90683 252.08398l0 0c0 -15.47702 29.4505 -28.02362 65.77951 -28.02362c36.32904 0 65.77954 12.5466 65.77954 28.02362l0 0c0 15.47702 -29.4505 28.02362 -65.77954 28.02362c-36.32901 0 -65.77951 -12.5466 -65.77951 -28.02362z" fill-rule="nonzero"></path><path fill="#000000" fill-opacity="0.0" d="m463.46588 252.08398l0 0c0 15.47702 -29.4505 28.02362 -65.77954 28.02362c-36.32901 0 -65.77951 -12.5466 -65.77951 -28.02362l0 0c0 -15.47702 29.4505 -28.02362 65.77951 -28.02362c36.32904 0 65.77954 12.5466 65.77954 28.02362l0 56.04724c0 15.47702 -29.4505 28.02362 -65.77954 28.02362c-36.32901 0 -65.77951 -12.5466 -65.77951 -28.02362l0 -56.04724" fill-rule="nonzero"></path><path stroke="#000000" stroke-width="1.0" stroke-linejoin="round" stroke-linecap="butt" d="m463.46588 252.08398l0 0c0 15.47702 -29.4505 28.02362 -65.77954 28.02362c-36.32901 0 -65.77951 -12.5466 -65.77951 -28.02362l0 0c0 -15.47702 29.4505 -28.02362 65.77951 -28.02362c36.32904 0 65.77954 12.5466 65.77954 28.02362l0 56.04724c0 15.47702 -29.4505 28.02362 -65.77954 28.02362c-36.32901 0 -65.77951 -12.5466 -65.77951 -28.02362l0 -56.04724" fill-rule="nonzero"></path><path fill="#000000" d="m374.55283 301.03943l0 -9.859375l1.5 0l0 1.5q0.578125 -1.046875 1.0625 -1.375q0.484375 -0.34375 1.078125 -0.34375q0.84375 0 1.71875 0.546875l-0.578125 1.546875q-0.609375 -0.359375 -1.234375 -0.359375q-0.546875 0 -0.984375 0.328125q-0.421875 0.328125 -0.609375 0.90625q-0.28125 0.890625 -0.28125 1.953125l0 5.15625l-1.671875 0zm5.603302 -4.921875q0 -2.734375 1.53125 -4.0625q1.265625 -1.09375 3.09375 -1.09375q2.03125 0 3.3125 1.34375q1.296875 1.328125 1.296875 3.671875q0 1.90625 -0.578125 3.0q-0.5625 1.078125 -1.65625 1.6875q-1.078125 0.59375 -2.375 0.59375q-2.0625 0 -3.34375 -1.328125q-1.28125 -1.328125 -1.28125 -3.8125zm1.71875 0q0 1.890625 0.828125 2.828125q0.828125 0.9375 2.078125 0.9375q1.25 0 2.0625 -0.9375q0.828125 -0.953125 0.828125 -2.890625q0 -1.828125 -0.828125 -2.765625q-0.828125 -0.9375 -2.0625 -0.9375q-1.25 0 -2.078125 0.9375q-0.828125 0.9375 -0.828125 2.828125zm15.735077 4.921875l0 -1.453125q-1.140625 1.671875 -3.125 1.671875q-0.859375 0 -1.625 -0.328125q-0.75 -0.34375 -1.125 -0.84375q-0.359375 -0.5 -0.515625 -1.234375q-0.09375 -0.5 -0.09375 -1.5625l0 -6.109375l1.671875 0l0 5.46875q0 1.3125 0.09375 1.765625q0.15625 0.65625 0.671875 1.03125q0.515625 0.375 1.265625 0.375q0.75 0 1.40625 -0.375q0.65625 -0.390625 0.921875 -1.046875q0.28125 -0.671875 0.28125 -1.9375l0 -5.28125l1.671875 0l0 9.859375l-1.5 0zm7.5788574 -1.5l0.234375 1.484375q-0.703125 0.140625 -1.265625 0.140625q-0.90625 0 -1.40625 -0.28125q-0.5 -0.296875 -0.703125 -0.75q-0.203125 -0.46875 -0.203125 -1.984375l0 -5.65625l-1.234375 0l0 -1.3125l1.234375 0l0 -2.4375l1.65625 -1.0l0 3.4375l1.6875 0l0 1.3125l-1.6875 0l0 5.75q0 0.71875 0.078125 0.921875q0.09375 0.203125 0.296875 0.328125q0.203125 0.125 0.578125 0.125q0.265625 0 0.734375 -0.078125zm8.277039 -1.671875l1.71875 0.21875q-0.40625 1.5 -1.515625 2.34375q-1.09375 0.828125 -2.8125 0.828125q-2.15625 0 -3.421875 -1.328125q-1.265625 -1.328125 -1.265625 -3.734375q0 -2.484375 1.265625 -3.859375q1.28125 -1.375 3.328125 -1.375q1.984375 0 3.234375 1.34375q1.25 1.34375 1.25 3.796875q0 0.140625 -0.015625 0.4375l-7.34375 0q0.09375 1.625 0.921875 2.484375q0.828125 0.859375 2.0625 0.859375q0.90625 0 1.546875 -0.46875q0.65625 -0.484375 1.046875 -1.546875zm-5.484375 -2.703125l5.5 0q-0.109375 -1.234375 -0.625 -1.859375q-0.796875 -0.96875 -2.078125 -0.96875q-1.140625 0 -1.9375 0.78125q-0.78125 0.765625 -0.859375 2.046875zm9.094482 5.875l0 -9.859375l1.5 0l0 1.5q0.578125 -1.046875 1.0625 -1.375q0.484375 -0.34375 1.078125 -0.34375q0.84375 0 1.71875 0.546875l-0.578125 1.546875q-0.609375 -0.359375 -1.234375 -0.359375q-0.546875 0 -0.984375 0.328125q-0.421875 0.328125 -0.609375 0.90625q-0.28125 0.890625 -0.28125 1.953125l0 5.15625l-1.671875 0z" fill-rule="nonzero"></path><path fill="#cfe2f3" d="m345.29266 251.16273l10.551941 -10.551971l0 5.2759857l36.565765 0l0 -7.620865l-5.276001 0l10.551971 -10.551971l10.551971 10.551971l-5.2759705 0l0 7.620865l36.565735 0l0 -5.2759857l10.551971 10.551971l-10.551971 10.551956l0 -5.2759705l-36.565735 0l0 7.6208496l5.2759705 0l-10.551971 10.551971l-10.551971 -10.551971l5.276001 0l0 -7.6208496l-36.565765 0l0 5.2759705z" fill-rule="nonzero"></path><path stroke="#000000" stroke-width="1.0" stroke-linejoin="round" stroke-linecap="butt" d="m345.29266 251.16273l10.551941 -10.551971l0 5.2759857l36.565765 0l0 -7.620865l-5.276001 0l10.551971 -10.551971l10.551971 10.551971l-5.2759705 0l0 7.620865l36.565735 0l0 -5.2759857l10.551971 10.551971l-10.551971 10.551956l0 -5.2759705l-36.565735 0l0 7.6208496l5.2759705 0l-10.551971 10.551971l-10.551971 -10.551971l5.276001 0l0 -7.6208496l-36.565765 0l0 5.2759705z" fill-rule="nonzero"></path><path fill="#cfe2f3" d="m496.53412 252.08398l0 0c0 15.47702 29.4505 28.02362 65.77954 28.02362c36.32904 0 65.77954 -12.5466 65.77954 -28.02362l0 56.04724c0 15.47702 -29.4505 28.02362 -65.77954 28.02362c-36.32904 0 -65.77954 -12.5466 -65.77954 -28.02362z" fill-rule="nonzero"></path><path fill="#e2edf7" d="m496.53412 252.08398l0 0c0 -15.47702 29.4505 -28.02362 65.77954 -28.02362c36.32904 0 65.77954 12.5466 65.77954 28.02362l0 0c0 15.47702 -29.4505 28.02362 -65.77954 28.02362c-36.32904 0 -65.77954 -12.5466 -65.77954 -28.02362z" fill-rule="nonzero"></path><path fill="#000000" fill-opacity="0.0" d="m628.0932 252.08398l0 0c0 15.47702 -29.4505 28.02362 -65.77954 28.02362c-36.32904 0 -65.77954 -12.5466 -65.77954 -28.02362l0 0c0 -15.47702 29.4505 -28.02362 65.77954 -28.02362c36.32904 0 65.77954 12.5466 65.77954 28.02362l0 56.04724c0 15.47702 -29.4505 28.02362 -65.77954 28.02362c-36.32904 0 -65.77954 -12.5466 -65.77954 -28.02362l0 -56.04724" fill-rule="nonzero"></path><path stroke="#000000" stroke-width="1.0" stroke-linejoin="round" stroke-linecap="butt" d="m628.0932 252.08398l0 0c0 15.47702 -29.4505 28.02362 -65.77954 28.02362c-36.32904 0 -65.77954 -12.5466 -65.77954 -28.02362l0 0c0 -15.47702 29.4505 -28.02362 65.77954 -28.02362c36.32904 0 65.77954 12.5466 65.77954 28.02362l0 56.04724c0 15.47702 -29.4505 28.02362 -65.77954 28.02362c-36.32904 0 -65.77954 -12.5466 -65.77954 -28.02362l0 -56.04724" fill-rule="nonzero"></path><path fill="#000000" d="m539.1801 301.03943l0 -9.859375l1.5 0l0 1.5q0.578125 -1.046875 1.0625 -1.375q0.484375 -0.34375 1.078125 -0.34375q0.84375 0 1.71875 0.546875l-0.578125 1.546875q-0.609375 -0.359375 -1.234375 -0.359375q-0.546875 0 -0.984375 0.328125q-0.421875 0.328125 -0.609375 0.90625q-0.28125 0.890625 -0.28125 1.953125l0 5.15625l-1.671875 0zm5.6033325 -4.921875q0 -2.734375 1.53125 -4.0625q1.265625 -1.09375 3.09375 -1.09375q2.03125 0 3.3125 1.34375q1.296875 1.328125 1.296875 3.671875q0 1.90625 -0.578125 3.0q-0.5625 1.078125 -1.65625 1.6875q-1.078125 0.59375 -2.375 0.59375q-2.0625 0 -3.34375 -1.328125q-1.28125 -1.328125 -1.28125 -3.8125zm1.71875 0q0 1.890625 0.828125 2.828125q0.828125 0.9375 2.078125 0.9375q1.25 0 2.0625 -0.9375q0.828125 -0.953125 0.828125 -2.890625q0 -1.828125 -0.828125 -2.765625q-0.828125 -0.9375 -2.0625 -0.9375q-1.25 0 -2.078125 0.9375q-0.828125 0.9375 -0.828125 2.828125zm15.735046 4.921875l0 -1.453125q-1.140625 1.671875 -3.125 1.671875q-0.859375 0 -1.625 -0.328125q-0.75 -0.34375 -1.125 -0.84375q-0.359375 -0.5 -0.515625 -1.234375q-0.09375 -0.5 -0.09375 -1.5625l0 -6.109375l1.671875 0l0 5.46875q0 1.3125 0.09375 1.765625q0.15625 0.65625 0.671875 1.03125q0.515625 0.375 1.265625 0.375q0.75 0 1.40625 -0.375q0.65625 -0.390625 0.921875 -1.046875q0.28125 -0.671875 0.28125 -1.9375l0 -5.28125l1.671875 0l0 9.859375l-1.5 0zm7.5788574 -1.5l0.234375 1.484375q-0.703125 0.140625 -1.265625 0.140625q-0.90625 0 -1.40625 -0.28125q-0.5 -0.296875 -0.703125 -0.75q-0.203125 -0.46875 -0.203125 -1.984375l0 -5.65625l-1.234375 0l0 -1.3125l1.234375 0l0 -2.4375l1.65625 -1.0l0 3.4375l1.6875 0l0 1.3125l-1.6875 0l0 5.75q0 0.71875 0.078125 0.921875q0.09375 0.203125 0.296875 0.328125q0.203125 0.125 0.578125 0.125q0.265625 0 0.734375 -0.078125zm8.277039 -1.671875l1.71875 0.21875q-0.40625 1.5 -1.515625 2.34375q-1.09375 0.828125 -2.8125 0.828125q-2.15625 0 -3.421875 -1.328125q-1.265625 -1.328125 -1.265625 -3.734375q0 -2.484375 1.265625 -3.859375q1.28125 -1.375 3.328125 -1.375q1.984375 0 3.234375 1.34375q1.25 1.34375 1.25 3.796875q0 0.140625 -0.015625 0.4375l-7.34375 0q0.09375 1.625 0.921875 2.484375q0.828125 0.859375 2.0625 0.859375q0.90625 0 1.546875 -0.46875q0.65625 -0.484375 1.046875 -1.546875zm-5.484375 -2.703125l5.5 0q-0.109375 -1.234375 -0.625 -1.859375q-0.796875 -0.96875 -2.078125 -0.96875q-1.140625 0 -1.9375 0.78125q-0.78125 0.765625 -0.859375 2.046875zm9.094482 5.875l0 -9.859375l1.5 0l0 1.5q0.578125 -1.046875 1.0625 -1.375q0.484375 -0.34375 1.078125 -0.34375q0.84375 0 1.71875 0.546875l-0.578125 1.546875q-0.609375 -0.359375 -1.234375 -0.359375q-0.546875 0 -0.984375 0.328125q-0.421875 0.328125 -0.609375 0.90625q-0.28125 0.890625 -0.28125 1.953125l0 5.15625l-1.671875 0z" fill-rule="nonzero"></path><path fill="#cfe2f3" d="m509.91995 251.16273l10.551971 -10.551971l0 5.2759857l36.565735 0l0 -7.620865l-5.276001 0l10.552002 -10.551971l10.551941 10.551971l-5.27594 0l0 7.620865l36.565735 0l0 -5.2759857l10.551941 10.551971l-10.551941 10.551956l0 -5.2759705l-36.565735 0l0 7.6208496l5.27594 0l-10.551941 10.551971l-10.552002 -10.551971l5.276001 0l0 -7.6208496l-36.565735 0l0 5.2759705z" fill-rule="nonzero"></path><path stroke="#000000" stroke-width="1.0" stroke-linejoin="round" stroke-linecap="butt" d="m509.91995 251.16273l10.551971 -10.551971l0 5.2759857l36.565735 0l0 -7.620865l-5.276001 0l10.552002 -10.551971l10.551941 10.551971l-5.27594 0l0 7.620865l36.565735 0l0 -5.2759857l10.551941 10.551971l-10.551941 10.551956l0 -5.2759705l-36.565735 0l0 7.6208496l5.27594 0l-10.551941 10.551971l-10.552002 -10.551971l5.276001 0l0 -7.6208496l-36.565735 0l0 5.2759705z" fill-rule="nonzero"></path><path fill="#cfe2f3" d="m213.7336 405.91077l0 0c0 15.47702 29.4505 28.02362 65.779526 28.02362c36.32904 0 65.77954 -12.5466 65.77954 -28.02362l0 56.04724c0 15.47702 -29.4505 28.02362 -65.77954 28.02362c-36.329025 0 -65.779526 -12.5466 -65.779526 -28.02362z" fill-rule="nonzero"></path><path fill="#e2edf7" d="m213.7336 405.91077l0 0c0 -15.47702 29.4505 -28.02362 65.779526 -28.02362c36.32904 0 65.77954 12.5466 65.77954 28.02362l0 0c0 15.47702 -29.4505 28.02362 -65.77954 28.02362c-36.329025 0 -65.779526 -12.5466 -65.779526 -28.02362z" fill-rule="nonzero"></path><path fill="#000000" fill-opacity="0.0" d="m345.29266 405.91077l0 0c0 15.47702 -29.4505 28.02362 -65.77954 28.02362c-36.329025 0 -65.779526 -12.5466 -65.779526 -28.02362l0 0c0 -15.47702 29.4505 -28.02362 65.779526 -28.02362c36.32904 0 65.77954 12.5466 65.77954 28.02362l0 56.04724c0 15.47702 -29.4505 28.02362 -65.77954 28.02362c-36.329025 0 -65.779526 -12.5466 -65.779526 -28.02362l0 -56.04724" fill-rule="nonzero"></path><path stroke="#000000" stroke-width="1.0" stroke-linejoin="round" stroke-linecap="butt" d="m345.29266 405.91077l0 0c0 15.47702 -29.4505 28.02362 -65.77954 28.02362c-36.329025 0 -65.779526 -12.5466 -65.779526 -28.02362l0 0c0 -15.47702 29.4505 -28.02362 65.779526 -28.02362c36.32904 0 65.77954 12.5466 65.77954 28.02362l0 56.04724c0 15.47702 -29.4505 28.02362 -65.77954 28.02362c-36.329025 0 -65.779526 -12.5466 -65.779526 -28.02362l0 -56.04724" fill-rule="nonzero"></path><path fill="#000000" d="m229.14871 454.86618l0 -9.859375l1.5 0l0 1.40625q1.09375 -1.625 3.140625 -1.625q0.890625 0 1.640625 0.328125q0.75 0.3125 1.109375 0.84375q0.375 0.515625 0.53125 1.21875q0.09375 0.46875 0.09375 1.625l0 6.0625l-1.671875 0l0 -6.0q0 -1.015625 -0.203125 -1.515625q-0.1875 -0.515625 -0.6875 -0.8125q-0.5 -0.296875 -1.171875 -0.296875q-1.0625 0 -1.84375 0.671875q-0.765625 0.671875 -0.765625 2.578125l0 5.375l-1.671875 0zm9.750717 -4.921875q0 -2.734375 1.53125 -4.0625q1.265625 -1.09375 3.09375 -1.09375q2.03125 0 3.3125 1.34375q1.296875 1.328125 1.296875 3.671875q0 1.90625 -0.578125 3.0q-0.5625 1.078125 -1.65625 1.6875q-1.078125 0.59375 -2.375 0.59375q-2.0625 0 -3.34375 -1.328125q-1.28125 -1.328125 -1.28125 -3.8125zm1.71875 0q0 1.890625 0.828125 2.828125q0.828125 0.9375 2.078125 0.9375q1.25 0 2.0625 -0.9375q0.828125 -0.953125 0.828125 -2.890625q0 -1.828125 -0.828125 -2.765625q-0.828125 -0.9375 -2.0625 -0.9375q-1.25 0 -2.078125 0.9375q-0.828125 0.9375 -0.828125 2.828125zm15.672592 4.921875l0 -1.25q-0.9375 1.46875 -2.75 1.46875q-1.171875 0 -2.171875 -0.640625q-0.984375 -0.65625 -1.53125 -1.8125q-0.53125 -1.171875 -0.53125 -2.6875q0 -1.46875 0.484375 -2.671875q0.5 -1.203125 1.46875 -1.84375q0.984375 -0.640625 2.203125 -0.640625q0.890625 0 1.578125 0.375q0.703125 0.375 1.140625 0.984375l0 -4.875l1.65625 0l0 13.59375l-1.546875 0zm-5.28125 -4.921875q0 1.890625 0.796875 2.828125q0.8125 0.9375 1.890625 0.9375q1.09375 0 1.859375 -0.890625q0.765625 -0.890625 0.765625 -2.734375q0 -2.015625 -0.78125 -2.953125q-0.78125 -0.953125 -1.921875 -0.953125q-1.109375 0 -1.859375 0.90625q-0.75 0.90625 -0.75 2.859375zm16.016327 1.75l1.71875 0.21875q-0.40625 1.5 -1.515625 2.34375q-1.09375 0.828125 -2.8125 0.828125q-2.15625 0 -3.421875 -1.328125q-1.265625 -1.328125 -1.265625 -3.734375q0 -2.484375 1.265625 -3.859375q1.28125 -1.375 3.328125 -1.375q1.984375 0 3.234375 1.34375q1.25 1.34375 1.25 3.796875q0 0.140625 -0.015625 0.4375l-7.34375 0q0.09375 1.625 0.921875 2.484375q0.828125 0.859375 2.0625 0.859375q0.90625 0 1.546875 -0.46875q0.65625 -0.484375 1.046875 -1.546875zm-5.484375 -2.703125l5.5 0q-0.109375 -1.234375 -0.625 -1.859375q-0.796875 -0.96875 -2.078125 -0.96875q-1.140625 0 -1.9375 0.78125q-0.78125 0.765625 -0.859375 2.046875zm17.891357 -2.125l-8.96875 0l0 -1.5625l8.96875 0l0 1.5625zm0 4.125l-8.96875 0l0 -1.546875l8.96875 0l0 1.546875zm5.7699585 2.375l0.234375 1.484375q-0.703125 0.140625 -1.265625 0.140625q-0.90625 0 -1.40625 -0.28125q-0.5 -0.296875 -0.703125 -0.75q-0.203125 -0.46875 -0.203125 -1.984375l0 -5.65625l-1.234375 0l0 -1.3125l1.234375 0l0 -2.4375l1.65625 -1.0l0 3.4375l1.6875 0l0 1.3125l-1.6875 0l0 5.75q0 0.71875 0.078125 0.921875q0.09375 0.203125 0.296875 0.328125q0.203125 0.125 0.578125 0.125q0.265625 0 0.734375 -0.078125zm7.9801636 1.5l0 -1.453125q-1.140625 1.671875 -3.125 1.671875q-0.859375 0 -1.625 -0.328125q-0.75 -0.34375 -1.125 -0.84375q-0.359375 -0.5 -0.515625 -1.234375q-0.09375 -0.5 -0.09375 -1.5625l0 -6.109375l1.671875 0l0 5.46875q0 1.3125 0.09375 1.765625q0.15625 0.65625 0.671875 1.03125q0.515625 0.375 1.265625 0.375q0.75 0 1.40625 -0.375q0.65625 -0.390625 0.921875 -1.046875q0.28125 -0.671875 0.28125 -1.9375l0 -5.28125l1.671875 0l0 9.859375l-1.5 0zm3.9226074 0l0 -9.859375l1.5 0l0 1.40625q1.09375 -1.625 3.140625 -1.625q0.890625 0 1.640625 0.328125q0.75 0.3125 1.109375 0.84375q0.375 0.515625 0.53125 1.21875q0.09375 0.46875 0.09375 1.625l0 6.0625l-1.671875 0l0 -6.0q0 -1.015625 -0.203125 -1.515625q-0.1875 -0.515625 -0.6875 -0.8125q-0.5 -0.296875 -1.171875 -0.296875q-1.0625 0 -1.84375 0.671875q-0.765625 0.671875 -0.765625 2.578125l0 5.375l-1.671875 0zm10.375702 0l0 -9.859375l1.5 0l0 1.40625q1.09375 -1.625 3.140625 -1.625q0.890625 0 1.640625 0.328125q0.75 0.3125 1.109375 0.84375q0.375 0.515625 0.53125 1.21875q0.09375 0.46875 0.09375 1.625l0 6.0625l-1.671875 0l0 -6.0q0 -1.015625 -0.203125 -1.515625q-0.1875 -0.515625 -0.6875 -0.8125q-0.5 -0.296875 -1.171875 -0.296875q-1.0625 0 -1.84375 0.671875q-0.765625 0.671875 -0.765625 2.578125l0 5.375l-1.671875 0zm17.125732 -3.171875l1.71875 0.21875q-0.40625 1.5 -1.515625 2.34375q-1.09375 0.828125 -2.8125 0.828125q-2.15625 0 -3.421875 -1.328125q-1.265625 -1.328125 -1.265625 -3.734375q0 -2.484375 1.265625 -3.859375q1.28125 -1.375 3.328125 -1.375q1.984375 0 3.234375 1.34375q1.25 1.34375 1.25 3.796875q0 0.140625 -0.015625 0.4375l-7.34375 0q0.09375 1.625 0.921875 2.484375q0.828125 0.859375 2.0625 0.859375q0.90625 0 1.546875 -0.46875q0.65625 -0.484375 1.046875 -1.546875zm-5.484375 -2.703125l5.5 0q-0.109375 -1.234375 -0.625 -1.859375q-0.796875 -0.96875 -2.078125 -0.96875q-1.140625 0 -1.9375 0.78125q-0.78125 0.765625 -0.859375 2.046875zm9.078827 5.875l0 -13.59375l1.671875 0l0 13.59375l-1.671875 0z" fill-rule="nonzero"></path><path fill="#cfe2f3" d="m414.21915 405.91077l0 0c0 15.47702 29.4505 28.02362 65.77954 28.02362c36.32901 0 65.77951 -12.5466 65.77951 -28.02362l0 56.04724c0 15.47702 -29.4505 28.02362 -65.77951 28.02362c-36.32904 0 -65.77954 -12.5466 -65.77954 -28.02362z" fill-rule="nonzero"></path><path fill="#e2edf7" d="m414.21915 405.91077l0 0c0 -15.47702 29.4505 -28.02362 65.77954 -28.02362c36.32901 0 65.77951 12.5466 65.77951 28.02362l0 0c0 15.47702 -29.4505 28.02362 -65.77951 28.02362c-36.32904 0 -65.77954 -12.5466 -65.77954 -28.02362z" fill-rule="nonzero"></path><path fill="#000000" fill-opacity="0.0" d="m545.7782 405.91077l0 0c0 15.47702 -29.4505 28.02362 -65.77951 28.02362c-36.32904 0 -65.77954 -12.5466 -65.77954 -28.02362l0 0c0 -15.47702 29.4505 -28.02362 65.77954 -28.02362c36.32901 0 65.77951 12.5466 65.77951 28.02362l0 56.04724c0 15.47702 -29.4505 28.02362 -65.77951 28.02362c-36.32904 0 -65.77954 -12.5466 -65.77954 -28.02362l0 -56.04724" fill-rule="nonzero"></path><path stroke="#000000" stroke-width="1.0" stroke-linejoin="round" stroke-linecap="butt" d="m545.7782 405.91077l0 0c0 15.47702 -29.4505 28.02362 -65.77951 28.02362c-36.32904 0 -65.77954 -12.5466 -65.77954 -28.02362l0 0c0 -15.47702 29.4505 -28.02362 65.77954 -28.02362c36.32901 0 65.77951 12.5466 65.77951 28.02362l0 56.04724c0 15.47702 -29.4505 28.02362 -65.77951 28.02362c-36.32904 0 -65.77954 -12.5466 -65.77954 -28.02362l0 -56.04724" fill-rule="nonzero"></path><path fill="#000000" d="m429.63428 454.86618l0 -9.859375l1.5 0l0 1.40625q1.09375 -1.625 3.140625 -1.625q0.890625 0 1.640625 0.328125q0.75 0.3125 1.109375 0.84375q0.375 0.515625 0.53125 1.21875q0.09375 0.46875 0.09375 1.625l0 6.0625l-1.671875 0l0 -6.0q0 -1.015625 -0.203125 -1.515625q-0.1875 -0.515625 -0.6875 -0.8125q-0.5 -0.296875 -1.171875 -0.296875q-1.0625 0 -1.84375 0.671875q-0.765625 0.671875 -0.765625 2.578125l0 5.375l-1.671875 0zm9.750702 -4.921875q0 -2.734375 1.53125 -4.0625q1.265625 -1.09375 3.09375 -1.09375q2.03125 0 3.3125 1.34375q1.296875 1.328125 1.296875 3.671875q0 1.90625 -0.578125 3.0q-0.5625 1.078125 -1.65625 1.6875q-1.078125 0.59375 -2.375 0.59375q-2.0625 0 -3.34375 -1.328125q-1.28125 -1.328125 -1.28125 -3.8125zm1.71875 0q0 1.890625 0.828125 2.828125q0.828125 0.9375 2.078125 0.9375q1.25 0 2.0625 -0.9375q0.828125 -0.953125 0.828125 -2.890625q0 -1.828125 -0.828125 -2.765625q-0.828125 -0.9375 -2.0625 -0.9375q-1.25 0 -2.078125 0.9375q-0.828125 0.9375 -0.828125 2.828125zm15.672607 4.921875l0 -1.25q-0.9375 1.46875 -2.75 1.46875q-1.171875 0 -2.171875 -0.640625q-0.984375 -0.65625 -1.53125 -1.8125q-0.53125 -1.171875 -0.53125 -2.6875q0 -1.46875 0.484375 -2.671875q0.5 -1.203125 1.46875 -1.84375q0.984375 -0.640625 2.203125 -0.640625q0.890625 0 1.578125 0.375q0.703125 0.375 1.140625 0.984375l0 -4.875l1.65625 0l0 13.59375l-1.546875 0zm-5.28125 -4.921875q0 1.890625 0.796875 2.828125q0.8125 0.9375 1.890625 0.9375q1.09375 0 1.859375 -0.890625q0.765625 -0.890625 0.765625 -2.734375q0 -2.015625 -0.78125 -2.953125q-0.78125 -0.953125 -1.921875 -0.953125q-1.109375 0 -1.859375 0.90625q-0.75 0.90625 -0.75 2.859375zm16.016327 1.75l1.71875 0.21875q-0.40625 1.5 -1.515625 2.34375q-1.09375 0.828125 -2.8125 0.828125q-2.15625 0 -3.421875 -1.328125q-1.265625 -1.328125 -1.265625 -3.734375q0 -2.484375 1.265625 -3.859375q1.28125 -1.375 3.328125 -1.375q1.984375 0 3.234375 1.34375q1.25 1.34375 1.25 3.796875q0 0.140625 -0.015625 0.4375l-7.34375 0q0.09375 1.625 0.921875 2.484375q0.828125 0.859375 2.0625 0.859375q0.90625 0 1.546875 -0.46875q0.65625 -0.484375 1.046875 -1.546875zm-5.484375 -2.703125l5.5 0q-0.109375 -1.234375 -0.625 -1.859375q-0.796875 -0.96875 -2.078125 -0.96875q-1.140625 0 -1.9375 0.78125q-0.78125 0.765625 -0.859375 2.046875zm17.891357 -2.125l-8.96875 0l0 -1.5625l8.96875 0l0 1.5625zm0 4.125l-8.96875 0l0 -1.546875l8.96875 0l0 1.546875zm5.7699585 2.375l0.234375 1.484375q-0.703125 0.140625 -1.265625 0.140625q-0.90625 0 -1.40625 -0.28125q-0.5 -0.296875 -0.703125 -0.75q-0.203125 -0.46875 -0.203125 -1.984375l0 -5.65625l-1.234375 0l0 -1.3125l1.234375 0l0 -2.4375l1.65625 -1.0l0 3.4375l1.6875 0l0 1.3125l-1.6875 0l0 5.75q0 0.71875 0.078125 0.921875q0.09375 0.203125 0.296875 0.328125q0.203125 0.125 0.578125 0.125q0.265625 0 0.734375 -0.078125zm7.9801636 1.5l0 -1.453125q-1.140625 1.671875 -3.125 1.671875q-0.859375 0 -1.625 -0.328125q-0.75 -0.34375 -1.125 -0.84375q-0.359375 -0.5 -0.515625 -1.234375q-0.09375 -0.5 -0.09375 -1.5625l0 -6.109375l1.671875 0l0 5.46875q0 1.3125 0.09375 1.765625q0.15625 0.65625 0.671875 1.03125q0.515625 0.375 1.265625 0.375q0.75 0 1.40625 -0.375q0.65625 -0.390625 0.921875 -1.046875q0.28125 -0.671875 0.28125 -1.9375l0 -5.28125l1.671875 0l0 9.859375l-1.5 0zm3.9226074 0l0 -9.859375l1.5 0l0 1.40625q1.09375 -1.625 3.140625 -1.625q0.890625 0 1.640625 0.328125q0.75 0.3125 1.109375 0.84375q0.375 0.515625 0.53125 1.21875q0.09375 0.46875 0.09375 1.625l0 6.0625l-1.671875 0l0 -6.0q0 -1.015625 -0.203125 -1.515625q-0.1875 -0.515625 -0.6875 -0.8125q-0.5 -0.296875 -1.171875 -0.296875q-1.0625 0 -1.84375 0.671875q-0.765625 0.671875 -0.765625 2.578125l0 5.375l-1.671875 0zm10.375702 0l0 -9.859375l1.5 0l0 1.40625q1.09375 -1.625 3.1406555 -1.625q0.890625 0 1.640625 0.328125q0.75 0.3125 1.109375 0.84375q0.375 0.515625 0.53125 1.21875q0.09375 0.46875 0.09375 1.625l0 6.0625l-1.671875 0l0 -6.0q0 -1.015625 -0.203125 -1.515625q-0.1875 -0.515625 -0.6875 -0.8125q-0.5 -0.296875 -1.171875 -0.296875q-1.0625305 0 -1.8437805 0.671875q-0.765625 0.671875 -0.765625 2.578125l0 5.375l-1.671875 0zm17.125702 -3.171875l1.71875 0.21875q-0.40625 1.5 -1.515625 2.34375q-1.09375 0.828125 -2.8125 0.828125q-2.15625 0 -3.421875 -1.328125q-1.265625 -1.328125 -1.265625 -3.734375q0 -2.484375 1.265625 -3.859375q1.28125 -1.375 3.328125 -1.375q1.984375 0 3.234375 1.34375q1.25 1.34375 1.25 3.796875q0 0.140625 -0.015625 0.4375l-7.34375 0q0.09375 1.625 0.921875 2.484375q0.828125 0.859375 2.0625 0.859375q0.90625 0 1.546875 -0.46875q0.65625 -0.484375 1.046875 -1.546875zm-5.484375 -2.703125l5.5 0q-0.109375 -1.234375 -0.625 -1.859375q-0.796875 -0.96875 -2.078125 -0.96875q-1.140625 0 -1.9375 0.78125q-0.78125 0.765625 -0.859375 2.046875zm9.078857 5.875l0 -13.59375l1.671875 0l0 13.59375l-1.671875 0z" fill-rule="nonzero"></path><path fill="#cfe2f3" d="m614.7047 405.91077l0 0c0 15.47702 29.4505 28.02362 65.77954 28.02362c36.32904 0 65.77954 -12.5466 65.77954 -28.02362l0 56.04724c0 15.47702 -29.4505 28.02362 -65.77954 28.02362c-36.32904 0 -65.77954 -12.5466 -65.77954 -28.02362z" fill-rule="nonzero"></path><path fill="#e2edf7" d="m614.7047 405.91077l0 0c0 -15.47702 29.4505 -28.02362 65.77954 -28.02362c36.32904 0 65.77954 12.5466 65.77954 28.02362l0 0c0 15.47702 -29.4505 28.02362 -65.77954 28.02362c-36.32904 0 -65.77954 -12.5466 -65.77954 -28.02362z" fill-rule="nonzero"></path><path fill="#000000" fill-opacity="0.0" d="m746.2638 405.91077l0 0c0 15.47702 -29.4505 28.02362 -65.77954 28.02362c-36.32904 0 -65.77954 -12.5466 -65.77954 -28.02362l0 0c0 -15.47702 29.4505 -28.02362 65.77954 -28.02362c36.32904 0 65.77954 12.5466 65.77954 28.02362l0 56.04724c0 15.47702 -29.4505 28.02362 -65.77954 28.02362c-36.32904 0 -65.77954 -12.5466 -65.77954 -28.02362l0 -56.04724" fill-rule="nonzero"></path><path stroke="#000000" stroke-width="1.0" stroke-linejoin="round" stroke-linecap="butt" d="m746.2638 405.91077l0 0c0 15.47702 -29.4505 28.02362 -65.77954 28.02362c-36.32904 0 -65.77954 -12.5466 -65.77954 -28.02362l0 0c0 -15.47702 29.4505 -28.02362 65.77954 -28.02362c36.32904 0 65.77954 12.5466 65.77954 28.02362l0 56.04724c0 15.47702 -29.4505 28.02362 -65.77954 28.02362c-36.32904 0 -65.77954 -12.5466 -65.77954 -28.02362l0 -56.04724" fill-rule="nonzero"></path><path fill="#000000" d="m630.1198 454.86618l0 -9.859375l1.5 0l0 1.40625q1.09375 -1.625 3.140625 -1.625q0.890625 0 1.640625 0.328125q0.75 0.3125 1.109375 0.84375q0.375 0.515625 0.53125 1.21875q0.09375 0.46875 0.09375 1.625l0 6.0625l-1.671875 0l0 -6.0q0 -1.015625 -0.203125 -1.515625q-0.1875 -0.515625 -0.6875 -0.8125q-0.5 -0.296875 -1.171875 -0.296875q-1.0625 0 -1.84375 0.671875q-0.765625 0.671875 -0.765625 2.578125l0 5.375l-1.671875 0zm9.750732 -4.921875q0 -2.734375 1.53125 -4.0625q1.265625 -1.09375 3.09375 -1.09375q2.03125 0 3.3125 1.34375q1.296875 1.328125 1.296875 3.671875q0 1.90625 -0.578125 3.0q-0.5625 1.078125 -1.65625 1.6875q-1.078125 0.59375 -2.375 0.59375q-2.0625 0 -3.34375 -1.328125q-1.28125 -1.328125 -1.28125 -3.8125zm1.71875 0q0 1.890625 0.828125 2.828125q0.828125 0.9375 2.078125 0.9375q1.25 0 2.0625 -0.9375q0.828125 -0.953125 0.828125 -2.890625q0 -1.828125 -0.828125 -2.765625q-0.828125 -0.9375 -2.0625 -0.9375q-1.25 0 -2.078125 0.9375q-0.828125 0.9375 -0.828125 2.828125zm15.672607 4.921875l0 -1.25q-0.9375 1.46875 -2.75 1.46875q-1.171875 0 -2.171875 -0.640625q-0.984375 -0.65625 -1.53125 -1.8125q-0.53125 -1.171875 -0.53125 -2.6875q0 -1.46875 0.484375 -2.671875q0.5 -1.203125 1.46875 -1.84375q0.984375 -0.640625 2.203125 -0.640625q0.890625 0 1.578125 0.375q0.703125 0.375 1.140625 0.984375l0 -4.875l1.65625 0l0 13.59375l-1.546875 0zm-5.28125 -4.921875q0 1.890625 0.796875 2.828125q0.8125 0.9375 1.890625 0.9375q1.09375 0 1.859375 -0.890625q0.765625 -0.890625 0.765625 -2.734375q0 -2.015625 -0.78125 -2.953125q-0.78125 -0.953125 -1.921875 -0.953125q-1.109375 0 -1.859375 0.90625q-0.75 0.90625 -0.75 2.859375zm16.016357 1.75l1.71875 0.21875q-0.40625 1.5 -1.515625 2.34375q-1.09375 0.828125 -2.8125 0.828125q-2.15625 0 -3.421875 -1.328125q-1.265625 -1.328125 -1.265625 -3.734375q0 -2.484375 1.265625 -3.859375q1.28125 -1.375 3.328125 -1.375q1.984375 0 3.234375 1.34375q1.25 1.34375 1.25 3.796875q0 0.140625 -0.015625 0.4375l-7.34375 0q0.09375 1.625 0.921875 2.484375q0.828125 0.859375 2.0625 0.859375q0.90625 0 1.546875 -0.46875q0.65625 -0.484375 1.046875 -1.546875zm-5.484375 -2.703125l5.5 0q-0.109375 -1.234375 -0.625 -1.859375q-0.796875 -0.96875 -2.078125 -0.96875q-1.140625 0 -1.9375 0.78125q-0.78125 0.765625 -0.859375 2.046875zm17.891296 -2.125l-8.96875 0l0 -1.5625l8.96875 0l0 1.5625zm0 4.125l-8.96875 0l0 -1.546875l8.96875 0l0 1.546875zm5.7699585 2.375l0.234375 1.484375q-0.703125 0.140625 -1.265625 0.140625q-0.90625 0 -1.40625 -0.28125q-0.5 -0.296875 -0.703125 -0.75q-0.203125 -0.46875 -0.203125 -1.984375l0 -5.65625l-1.234375 0l0 -1.3125l1.234375 0l0 -2.4375l1.65625 -1.0l0 3.4375l1.6875 0l0 1.3125l-1.6875 0l0 5.75q0 0.71875 0.078125 0.921875q0.09375 0.203125 0.296875 0.328125q0.203125 0.125 0.578125 0.125q0.265625 0 0.734375 -0.078125zm7.9802246 1.5l0 -1.453125q-1.140625 1.671875 -3.125 1.671875q-0.859375 0 -1.625 -0.328125q-0.75 -0.34375 -1.125 -0.84375q-0.359375 -0.5 -0.515625 -1.234375q-0.09375 -0.5 -0.09375 -1.5625l0 -6.109375l1.671875 0l0 5.46875q0 1.3125 0.09375 1.765625q0.15625 0.65625 0.671875 1.03125q0.515625 0.375 1.265625 0.375q0.75 0 1.40625 -0.375q0.65625 -0.390625 0.921875 -1.046875q0.28125 -0.671875 0.28125 -1.9375l0 -5.28125l1.671875 0l0 9.859375l-1.5 0zm3.9225464 0l0 -9.859375l1.5 0l0 1.40625q1.09375 -1.625 3.140625 -1.625q0.890625 0 1.640625 0.328125q0.75 0.3125 1.109375 0.84375q0.375 0.515625 0.53125 1.21875q0.09375 0.46875 0.09375 1.625l0 6.0625l-1.671875 0l0 -6.0q0 -1.015625 -0.203125 -1.515625q-0.1875 -0.515625 -0.6875 -0.8125q-0.5 -0.296875 -1.171875 -0.296875q-1.0625 0 -1.84375 0.671875q-0.765625 0.671875 -0.765625 2.578125l0 5.375l-1.671875 0zm10.375732 0l0 -9.859375l1.5 0l0 1.40625q1.09375 -1.625 3.140625 -1.625q0.890625 0 1.640625 0.328125q0.75 0.3125 1.109375 0.84375q0.375 0.515625 0.53125 1.21875q0.09375 0.46875 0.09375 1.625l0 6.0625l-1.671875 0l0 -6.0q0 -1.015625 -0.203125 -1.515625q-0.1875 -0.515625 -0.6875 -0.8125q-0.5 -0.296875 -1.171875 -0.296875q-1.0625 0 -1.84375 0.671875q-0.765625 0.671875 -0.765625 2.578125l0 5.375l-1.671875 0zm17.125732 -3.171875l1.71875 0.21875q-0.40625 1.5 -1.515625 2.34375q-1.09375 0.828125 -2.8125 0.828125q-2.15625 0 -3.421875 -1.328125q-1.265625 -1.328125 -1.265625 -3.734375q0 -2.484375 1.265625 -3.859375q1.28125 -1.375 3.328125 -1.375q1.984375 0 3.234375 1.34375q1.25 1.34375 1.25 3.796875q0 0.140625 -0.015625 0.4375l-7.34375 0q0.09375 1.625 0.921875 2.484375q0.828125 0.859375 2.0625 0.859375q0.90625 0 1.546875 -0.46875q0.65625 -0.484375 1.046875 -1.546875zm-5.484375 -2.703125l5.5 0q-0.109375 -1.234375 -0.625 -1.859375q-0.796875 -0.96875 -2.078125 -0.96875q-1.140625 0 -1.9375 0.78125q-0.78125 0.765625 -0.859375 2.046875zm9.078857 5.875l0 -13.59375l1.671875 0l0 13.59375l-1.671875 0z" fill-rule="nonzero"></path><path fill="#cfe2f3" d="m199.2769 561.6457l0 0c0 15.47699 29.4505 28.02362 65.779526 28.02362c36.32904 0 65.77954 -12.546631 65.77954 -28.02362l0 56.04724c0 15.47699 -29.4505 28.02362 -65.77954 28.02362c-36.329025 0 -65.779526 -12.546631 -65.779526 -28.02362z" fill-rule="nonzero"></path><path fill="#e2edf7" d="m199.2769 561.6457l0 0c0 -15.477051 29.4505 -28.02362 65.779526 -28.02362c36.32904 0 65.77954 12.54657 65.77954 28.02362l0 0c0 15.47699 -29.4505 28.02362 -65.77954 28.02362c-36.329025 0 -65.779526 -12.546631 -65.779526 -28.02362z" fill-rule="nonzero"></path><path fill="#000000" fill-opacity="0.0" d="m330.83597 561.6457l0 0c0 15.47699 -29.4505 28.02362 -65.77954 28.02362c-36.329025 0 -65.779526 -12.546631 -65.779526 -28.02362l0 0c0 -15.477051 29.4505 -28.02362 65.779526 -28.02362c36.32904 0 65.77954 12.54657 65.77954 28.02362l0 56.04724c0 15.47699 -29.4505 28.02362 -65.77954 28.02362c-36.329025 0 -65.779526 -12.546631 -65.779526 -28.02362l0 -56.04724" fill-rule="nonzero"></path><path stroke="#000000" stroke-width="1.0" stroke-linejoin="round" stroke-linecap="butt" d="m330.83597 561.6457l0 0c0 15.47699 -29.4505 28.02362 -65.77954 28.02362c-36.329025 0 -65.779526 -12.546631 -65.779526 -28.02362l0 0c0 -15.477051 29.4505 -28.02362 65.779526 -28.02362c36.32904 0 65.77954 12.54657 65.77954 28.02362l0 56.04724c0 15.47699 -29.4505 28.02362 -65.77954 28.02362c-36.329025 0 -65.779526 -12.546631 -65.779526 -28.02362l0 -56.04724" fill-rule="nonzero"></path><path fill="#cfe2f3" d="m592.2507 577.6457l0 0c0 15.47699 29.4505 28.02362 65.77954 28.02362c36.32898 0 65.77948 -12.546631 65.77948 -28.02362l0 56.04724c0 15.47699 -29.4505 28.02362 -65.77948 28.02362c-36.32904 0 -65.77954 -12.546631 -65.77954 -28.02362z" fill-rule="nonzero"></path><path fill="#e2edf7" d="m592.2507 577.6457l0 0c0 -15.477051 29.4505 -28.02362 65.77954 -28.02362c36.32898 0 65.77948 12.54657 65.77948 28.02362l0 0c0 15.47699 -29.4505 28.02362 -65.77948 28.02362c-36.32904 0 -65.77954 -12.546631 -65.77954 -28.02362z" fill-rule="nonzero"></path><path fill="#000000" fill-opacity="0.0" d="m723.8097 577.6457l0 0c0 15.47699 -29.4505 28.02362 -65.77948 28.02362c-36.32904 0 -65.77954 -12.546631 -65.77954 -28.02362l0 0c0 -15.477051 29.4505 -28.02362 65.77954 -28.02362c36.32898 0 65.77948 12.54657 65.77948 28.02362l0 56.04724c0 15.47699 -29.4505 28.02362 -65.77948 28.02362c-36.32904 0 -65.77954 -12.546631 -65.77954 -28.02362l0 -56.04724" fill-rule="nonzero"></path><path stroke="#000000" stroke-width="1.0" stroke-linejoin="round" stroke-linecap="butt" d="m723.8097 577.6457l0 0c0 15.47699 -29.4505 28.02362 -65.77948 28.02362c-36.32904 0 -65.77954 -12.546631 -65.77954 -28.02362l0 0c0 -15.477051 29.4505 -28.02362 65.77954 -28.02362c36.32898 0 65.77948 12.54657 65.77948 28.02362l0 56.04724c0 15.47699 -29.4505 28.02362 -65.77948 28.02362c-36.32904 0 -65.77954 -12.546631 -65.77954 -28.02362l0 -56.04724" fill-rule="nonzero"></path><path fill="#cfe2f3" d="m509.93832 577.6457l0 0c0 15.47699 29.45047 28.02362 65.77951 28.02362c36.32904 0 65.77954 -12.546631 65.77954 -28.02362l0 56.04724c0 15.47699 -29.4505 28.02362 -65.77954 28.02362c-36.32904 0 -65.77951 -12.546631 -65.77951 -28.02362z" fill-rule="nonzero"></path><path fill="#e2edf7" d="m509.93832 577.6457l0 0c0 -15.477051 29.45047 -28.02362 65.77951 -28.02362c36.32904 0 65.77954 12.54657 65.77954 28.02362l0 0c0 15.47699 -29.4505 28.02362 -65.77954 28.02362c-36.32904 0 -65.77951 -12.546631 -65.77951 -28.02362z" fill-rule="nonzero"></path><path fill="#000000" fill-opacity="0.0" d="m641.4974 577.6457l0 0c0 15.47699 -29.4505 28.02362 -65.77954 28.02362c-36.32904 0 -65.77951 -12.546631 -65.77951 -28.02362l0 0c0 -15.477051 29.45047 -28.02362 65.77951 -28.02362c36.32904 0 65.77954 12.54657 65.77954 28.02362l0 56.04724c0 15.47699 -29.4505 28.02362 -65.77954 28.02362c-36.32904 0 -65.77951 -12.546631 -65.77951 -28.02362l0 -56.04724" fill-rule="nonzero"></path><path stroke="#000000" stroke-width="1.0" stroke-linejoin="round" stroke-linecap="butt" d="m641.4974 577.6457l0 0c0 15.47699 -29.4505 28.02362 -65.77954 28.02362c-36.32904 0 -65.77951 -12.546631 -65.77951 -28.02362l0 0c0 -15.477051 29.45047 -28.02362 65.77951 -28.02362c36.32904 0 65.77954 12.54657 65.77954 28.02362l0 56.04724c0 15.47699 -29.4505 28.02362 -65.77954 28.02362c-36.32904 0 -65.77951 -12.546631 -65.77951 -28.02362l0 -56.04724" fill-rule="nonzero"></path><path fill="#cfe2f3" d="m415.76248 577.6457l0 0c0 15.47699 29.45047 28.02362 65.77951 28.02362c36.32904 0 65.77954 -12.546631 65.77954 -28.02362l0 56.04724c0 15.47699 -29.4505 28.02362 -65.77954 28.02362c-36.32904 0 -65.77951 -12.546631 -65.77951 -28.02362z" fill-rule="nonzero"></path><path fill="#e2edf7" d="m415.76248 577.6457l0 0c0 -15.477051 29.45047 -28.02362 65.77951 -28.02362c36.32904 0 65.77954 12.54657 65.77954 28.02362l0 0c0 15.47699 -29.4505 28.02362 -65.77954 28.02362c-36.32904 0 -65.77951 -12.546631 -65.77951 -28.02362z" fill-rule="nonzero"></path><path fill="#000000" fill-opacity="0.0" d="m547.32153 577.6457l0 0c0 15.47699 -29.4505 28.02362 -65.77954 28.02362c-36.32904 0 -65.77951 -12.546631 -65.77951 -28.02362l0 0c0 -15.477051 29.45047 -28.02362 65.77951 -28.02362c36.32904 0 65.77954 12.54657 65.77954 28.02362l0 56.04724c0 15.47699 -29.4505 28.02362 -65.77954 28.02362c-36.32904 0 -65.77951 -12.546631 -65.77951 -28.02362l0 -56.04724" fill-rule="nonzero"></path><path stroke="#000000" stroke-width="1.0" stroke-linejoin="round" stroke-linecap="butt" d="m547.32153 577.6457l0 0c0 15.47699 -29.4505 28.02362 -65.77954 28.02362c-36.32904 0 -65.77951 -12.546631 -65.77951 -28.02362l0 0c0 -15.477051 29.45047 -28.02362 65.77951 -28.02362c36.32904 0 65.77954 12.54657 65.77954 28.02362l0 56.04724c0 15.47699 -29.4505 28.02362 -65.77954 28.02362c-36.32904 0 -65.77951 -12.546631 -65.77951 -28.02362l0 -56.04724" fill-rule="nonzero"></path><path fill="#cfe2f3" d="m315.65747 577.6457l0 0c0 15.47699 29.4505 28.02362 65.77954 28.02362c36.32904 0 65.77951 -12.546631 65.77951 -28.02362l0 56.04724c0 15.47699 -29.45047 28.02362 -65.77951 28.02362c-36.32904 0 -65.77954 -12.546631 -65.77954 -28.02362z" fill-rule="nonzero"></path><path fill="#e2edf7" d="m315.65747 577.6457l0 0c0 -15.477051 29.4505 -28.02362 65.77954 -28.02362c36.32904 0 65.77951 12.54657 65.77951 28.02362l0 0c0 15.47699 -29.45047 28.02362 -65.77951 28.02362c-36.32904 0 -65.77954 -12.546631 -65.77954 -28.02362z" fill-rule="nonzero"></path><path fill="#000000" fill-opacity="0.0" d="m447.21652 577.6457l0 0c0 15.47699 -29.45047 28.02362 -65.77951 28.02362c-36.32904 0 -65.77954 -12.546631 -65.77954 -28.02362l0 0c0 -15.477051 29.4505 -28.02362 65.77954 -28.02362c36.32904 0 65.77951 12.54657 65.77951 28.02362l0 56.04724c0 15.47699 -29.45047 28.02362 -65.77951 28.02362c-36.32904 0 -65.77954 -12.546631 -65.77954 -28.02362l0 -56.04724" fill-rule="nonzero"></path><path stroke="#000000" stroke-width="1.0" stroke-linejoin="round" stroke-linecap="butt" d="m447.21652 577.6457l0 0c0 15.47699 -29.45047 28.02362 -65.77951 28.02362c-36.32904 0 -65.77954 -12.546631 -65.77954 -28.02362l0 0c0 -15.477051 29.4505 -28.02362 65.77954 -28.02362c36.32904 0 65.77951 12.54657 65.77951 28.02362l0 56.04724c0 15.47699 -29.45047 28.02362 -65.77951 28.02362c-36.32904 0 -65.77954 -12.546631 -65.77954 -28.02362l0 -56.04724" fill-rule="nonzero"></path><path fill="#cfe2f3" d="m215.2769 577.6457l0 0c0 15.47699 29.4505 28.02362 65.779526 28.02362c36.32904 0 65.77954 -12.546631 65.77954 -28.02362l0 56.04724c0 15.47699 -29.4505 28.02362 -65.77954 28.02362c-36.329025 0 -65.779526 -12.546631 -65.779526 -28.02362z" fill-rule="nonzero"></path><path fill="#e2edf7" d="m215.2769 577.6457l0 0c0 -15.477051 29.4505 -28.02362 65.779526 -28.02362c36.32904 0 65.77954 12.54657 65.77954 28.02362l0 0c0 15.47699 -29.4505 28.02362 -65.77954 28.02362c-36.329025 0 -65.779526 -12.546631 -65.779526 -28.02362z" fill-rule="nonzero"></path><path fill="#000000" fill-opacity="0.0" d="m346.83597 577.6457l0 0c0 15.47699 -29.4505 28.02362 -65.77954 28.02362c-36.329025 0 -65.779526 -12.546631 -65.779526 -28.02362l0 0c0 -15.477051 29.4505 -28.02362 65.779526 -28.02362c36.32904 0 65.77954 12.54657 65.77954 28.02362l0 56.04724c0 15.47699 -29.4505 28.02362 -65.77954 28.02362c-36.329025 0 -65.779526 -12.546631 -65.779526 -28.02362l0 -56.04724" fill-rule="nonzero"></path><path stroke="#000000" stroke-width="1.0" stroke-linejoin="round" stroke-linecap="butt" d="m346.83597 577.6457l0 0c0 15.47699 -29.4505 28.02362 -65.77954 28.02362c-36.329025 0 -65.779526 -12.546631 -65.779526 -28.02362l0 0c0 -15.477051 29.4505 -28.02362 65.779526 -28.02362c36.32904 0 65.77954 12.54657 65.77954 28.02362l0 56.04724c0 15.47699 -29.4505 28.02362 -65.77954 28.02362c-36.329025 0 -65.779526 -12.546631 -65.779526 -28.02362l0 -56.04724" fill-rule="nonzero"></path><path fill="#cfe2f3" d="m608.2507 593.6457l0 0c0 15.47699 29.4505 28.02362 65.77954 28.02362c36.32898 0 65.77948 -12.546631 65.77948 -28.02362l0 56.04724c0 15.47699 -29.4505 28.02362 -65.77948 28.02362c-36.32904 0 -65.77954 -12.546631 -65.77954 -28.02362z" fill-rule="nonzero"></path><path fill="#e2edf7" d="m608.2507 593.6457l0 0c0 -15.477051 29.4505 -28.02362 65.77954 -28.02362c36.32898 0 65.77948 12.54657 65.77948 28.02362l0 0c0 15.47699 -29.4505 28.02362 -65.77948 28.02362c-36.32904 0 -65.77954 -12.546631 -65.77954 -28.02362z" fill-rule="nonzero"></path><path fill="#000000" fill-opacity="0.0" d="m739.8097 593.6457l0 0c0 15.47699 -29.4505 28.02362 -65.77948 28.02362c-36.32904 0 -65.77954 -12.546631 -65.77954 -28.02362l0 0c0 -15.477051 29.4505 -28.02362 65.77954 -28.02362c36.32898 0 65.77948 12.54657 65.77948 28.02362l0 56.04724c0 15.47699 -29.4505 28.02362 -65.77948 28.02362c-36.32904 0 -65.77954 -12.546631 -65.77954 -28.02362l0 -56.04724" fill-rule="nonzero"></path><path stroke="#000000" stroke-width="1.0" stroke-linejoin="round" stroke-linecap="butt" d="m739.8097 593.6457l0 0c0 15.47699 -29.4505 28.02362 -65.77948 28.02362c-36.32904 0 -65.77954 -12.546631 -65.77954 -28.02362l0 0c0 -15.477051 29.4505 -28.02362 65.77954 -28.02362c36.32898 0 65.77948 12.54657 65.77948 28.02362l0 56.04724c0 15.47699 -29.4505 28.02362 -65.77948 28.02362c-36.32904 0 -65.77954 -12.546631 -65.77954 -28.02362l0 -56.04724" fill-rule="nonzero"></path><path fill="#cfe2f3" d="m525.9383 593.6457l0 0c0 15.47699 29.4505 28.02362 65.77954 28.02362c36.32904 0 65.77954 -12.546631 65.77954 -28.02362l0 56.04724c0 15.47699 -29.4505 28.02362 -65.77954 28.02362c-36.32904 0 -65.77954 -12.546631 -65.77954 -28.02362z" fill-rule="nonzero"></path><path fill="#e2edf7" d="m525.9383 593.6457l0 0c0 -15.477051 29.4505 -28.02362 65.77954 -28.02362c36.32904 0 65.77954 12.54657 65.77954 28.02362l0 0c0 15.47699 -29.4505 28.02362 -65.77954 28.02362c-36.32904 0 -65.77954 -12.546631 -65.77954 -28.02362z" fill-rule="nonzero"></path><path fill="#000000" fill-opacity="0.0" d="m657.4974 593.6457l0 0c0 15.47699 -29.4505 28.02362 -65.77954 28.02362c-36.32904 0 -65.77954 -12.546631 -65.77954 -28.02362l0 0c0 -15.477051 29.4505 -28.02362 65.77954 -28.02362c36.32904 0 65.77954 12.54657 65.77954 28.02362l0 56.04724c0 15.47699 -29.4505 28.02362 -65.77954 28.02362c-36.32904 0 -65.77954 -12.546631 -65.77954 -28.02362l0 -56.04724" fill-rule="nonzero"></path><path stroke="#000000" stroke-width="1.0" stroke-linejoin="round" stroke-linecap="butt" d="m657.4974 593.6457l0 0c0 15.47699 -29.4505 28.02362 -65.77954 28.02362c-36.32904 0 -65.77954 -12.546631 -65.77954 -28.02362l0 0c0 -15.477051 29.4505 -28.02362 65.77954 -28.02362c36.32904 0 65.77954 12.54657 65.77954 28.02362l0 56.04724c0 15.47699 -29.4505 28.02362 -65.77954 28.02362c-36.32904 0 -65.77954 -12.546631 -65.77954 -28.02362l0 -56.04724" fill-rule="nonzero"></path><path fill="#cfe2f3" d="m431.76248 593.6457l0 0c0 15.47699 29.45047 28.02362 65.77951 28.02362c36.32904 0 65.77954 -12.546631 65.77954 -28.02362l0 56.04724c0 15.47699 -29.4505 28.02362 -65.77954 28.02362c-36.32904 0 -65.77951 -12.546631 -65.77951 -28.02362z" fill-rule="nonzero"></path><path fill="#e2edf7" d="m431.76248 593.6457l0 0c0 -15.477051 29.45047 -28.02362 65.77951 -28.02362c36.32904 0 65.77954 12.54657 65.77954 28.02362l0 0c0 15.47699 -29.4505 28.02362 -65.77954 28.02362c-36.32904 0 -65.77951 -12.546631 -65.77951 -28.02362z" fill-rule="nonzero"></path><path fill="#000000" fill-opacity="0.0" d="m563.32153 593.6457l0 0c0 15.47699 -29.4505 28.02362 -65.77954 28.02362c-36.32904 0 -65.77951 -12.546631 -65.77951 -28.02362l0 0c0 -15.477051 29.45047 -28.02362 65.77951 -28.02362c36.32904 0 65.77954 12.54657 65.77954 28.02362l0 56.04724c0 15.47699 -29.4505 28.02362 -65.77954 28.02362c-36.32904 0 -65.77951 -12.546631 -65.77951 -28.02362l0 -56.04724" fill-rule="nonzero"></path><path stroke="#000000" stroke-width="1.0" stroke-linejoin="round" stroke-linecap="butt" d="m563.32153 593.6457l0 0c0 15.47699 -29.4505 28.02362 -65.77954 28.02362c-36.32904 0 -65.77951 -12.546631 -65.77951 -28.02362l0 0c0 -15.477051 29.45047 -28.02362 65.77951 -28.02362c36.32904 0 65.77954 12.54657 65.77954 28.02362l0 56.04724c0 15.47699 -29.4505 28.02362 -65.77954 28.02362c-36.32904 0 -65.77951 -12.546631 -65.77951 -28.02362l0 -56.04724" fill-rule="nonzero"></path><path fill="#cfe2f3" d="m331.65747 593.6457l0 0c0 15.47699 29.4505 28.02362 65.77954 28.02362c36.32904 0 65.77951 -12.546631 65.77951 -28.02362l0 56.04724c0 15.47699 -29.45047 28.02362 -65.77951 28.02362c-36.32904 0 -65.77954 -12.546631 -65.77954 -28.02362z" fill-rule="nonzero"></path><path fill="#e2edf7" d="m331.65747 593.6457l0 0c0 -15.477051 29.4505 -28.02362 65.77954 -28.02362c36.32904 0 65.77951 12.54657 65.77951 28.02362l0 0c0 15.47699 -29.45047 28.02362 -65.77951 28.02362c-36.32904 0 -65.77954 -12.546631 -65.77954 -28.02362z" fill-rule="nonzero"></path><path fill="#000000" fill-opacity="0.0" d="m463.21652 593.6457l0 0c0 15.47699 -29.45047 28.02362 -65.77951 28.02362c-36.32904 0 -65.77954 -12.546631 -65.77954 -28.02362l0 0c0 -15.477051 29.4505 -28.02362 65.77954 -28.02362c36.32904 0 65.77951 12.54657 65.77951 28.02362l0 56.04724c0 15.47699 -29.45047 28.02362 -65.77951 28.02362c-36.32904 0 -65.77954 -12.546631 -65.77954 -28.02362l0 -56.04724" fill-rule="nonzero"></path><path stroke="#000000" stroke-width="1.0" stroke-linejoin="round" stroke-linecap="butt" d="m463.21652 593.6457l0 0c0 15.47699 -29.45047 28.02362 -65.77951 28.02362c-36.32904 0 -65.77954 -12.546631 -65.77954 -28.02362l0 0c0 -15.477051 29.4505 -28.02362 65.77954 -28.02362c36.32904 0 65.77951 12.54657 65.77951 28.02362l0 56.04724c0 15.47699 -29.45047 28.02362 -65.77951 28.02362c-36.32904 0 -65.77954 -12.546631 -65.77954 -28.02362l0 -56.04724" fill-rule="nonzero"></path><path fill="#cfe2f3" d="m231.2769 593.6457l0 0c0 15.47699 29.450485 28.02362 65.779526 28.02362c36.32904 0 65.77954 -12.546631 65.77954 -28.02362l0 56.04724c0 15.47699 -29.4505 28.02362 -65.77954 28.02362c-36.32904 0 -65.779526 -12.546631 -65.779526 -28.02362z" fill-rule="nonzero"></path><path fill="#e2edf7" d="m231.2769 593.6457l0 0c0 -15.477051 29.450485 -28.02362 65.779526 -28.02362c36.32904 0 65.77954 12.54657 65.77954 28.02362l0 0c0 15.47699 -29.4505 28.02362 -65.77954 28.02362c-36.32904 0 -65.779526 -12.546631 -65.779526 -28.02362z" fill-rule="nonzero"></path><path fill="#000000" fill-opacity="0.0" d="m362.83597 593.6457l0 0c0 15.47699 -29.4505 28.02362 -65.77954 28.02362c-36.32904 0 -65.779526 -12.546631 -65.779526 -28.02362l0 0c0 -15.477051 29.450485 -28.02362 65.779526 -28.02362c36.32904 0 65.77954 12.54657 65.77954 28.02362l0 56.04724c0 15.47699 -29.4505 28.02362 -65.77954 28.02362c-36.32904 0 -65.779526 -12.546631 -65.779526 -28.02362l0 -56.04724" fill-rule="nonzero"></path><path stroke="#000000" stroke-width="1.0" stroke-linejoin="round" stroke-linecap="butt" d="m362.83597 593.6457l0 0c0 15.47699 -29.4505 28.02362 -65.77954 28.02362c-36.32904 0 -65.779526 -12.546631 -65.779526 -28.02362l0 0c0 -15.477051 29.450485 -28.02362 65.779526 -28.02362c36.32904 0 65.77954 12.54657 65.77954 28.02362l0 56.04724c0 15.47699 -29.4505 28.02362 -65.77954 28.02362c-36.32904 0 -65.779526 -12.546631 -65.779526 -28.02362l0 -56.04724" fill-rule="nonzero"></path><path fill="#cfe2f3" d="m624.2507 609.6457l0 0c0 15.47699 29.4505 28.02362 65.77954 28.02362c36.32898 0 65.77948 -12.546631 65.77948 -28.02362l0 56.04724c0 15.47699 -29.4505 28.02362 -65.77948 28.02362c-36.32904 0 -65.77954 -12.546631 -65.77954 -28.02362z" fill-rule="nonzero"></path><path fill="#e2edf7" d="m624.2507 609.6457l0 0c0 -15.477051 29.4505 -28.02362 65.77954 -28.02362c36.32898 0 65.77948 12.54657 65.77948 28.02362l0 0c0 15.47699 -29.4505 28.02362 -65.77948 28.02362c-36.32904 0 -65.77954 -12.546631 -65.77954 -28.02362z" fill-rule="nonzero"></path><path fill="#000000" fill-opacity="0.0" d="m755.8097 609.6457l0 0c0 15.47699 -29.4505 28.02362 -65.77948 28.02362c-36.32904 0 -65.77954 -12.546631 -65.77954 -28.02362l0 0c0 -15.477051 29.4505 -28.02362 65.77954 -28.02362c36.32898 0 65.77948 12.54657 65.77948 28.02362l0 56.04724c0 15.47699 -29.4505 28.02362 -65.77948 28.02362c-36.32904 0 -65.77954 -12.546631 -65.77954 -28.02362l0 -56.04724" fill-rule="nonzero"></path><path stroke="#000000" stroke-width="1.0" stroke-linejoin="round" stroke-linecap="butt" d="m755.8097 609.6457l0 0c0 15.47699 -29.4505 28.02362 -65.77948 28.02362c-36.32904 0 -65.77954 -12.546631 -65.77954 -28.02362l0 0c0 -15.477051 29.4505 -28.02362 65.77954 -28.02362c36.32898 0 65.77948 12.54657 65.77948 28.02362l0 56.04724c0 15.47699 -29.4505 28.02362 -65.77948 28.02362c-36.32904 0 -65.77954 -12.546631 -65.77954 -28.02362l0 -56.04724" fill-rule="nonzero"></path><path fill="#cfe2f3" d="m541.9383 609.6457l0 0c0 15.47699 29.4505 28.02362 65.77954 28.02362c36.32904 0 65.77954 -12.546631 65.77954 -28.02362l0 56.04724c0 15.47699 -29.4505 28.02362 -65.77954 28.02362c-36.32904 0 -65.77954 -12.546631 -65.77954 -28.02362z" fill-rule="nonzero"></path><path fill="#e2edf7" d="m541.9383 609.6457l0 0c0 -15.477051 29.4505 -28.02362 65.77954 -28.02362c36.32904 0 65.77954 12.54657 65.77954 28.02362l0 0c0 15.47699 -29.4505 28.02362 -65.77954 28.02362c-36.32904 0 -65.77954 -12.546631 -65.77954 -28.02362z" fill-rule="nonzero"></path><path fill="#000000" fill-opacity="0.0" d="m673.4974 609.6457l0 0c0 15.47699 -29.4505 28.02362 -65.77954 28.02362c-36.32904 0 -65.77954 -12.546631 -65.77954 -28.02362l0 0c0 -15.477051 29.4505 -28.02362 65.77954 -28.02362c36.32904 0 65.77954 12.54657 65.77954 28.02362l0 56.04724c0 15.47699 -29.4505 28.02362 -65.77954 28.02362c-36.32904 0 -65.77954 -12.546631 -65.77954 -28.02362l0 -56.04724" fill-rule="nonzero"></path><path stroke="#000000" stroke-width="1.0" stroke-linejoin="round" stroke-linecap="butt" d="m673.4974 609.6457l0 0c0 15.47699 -29.4505 28.02362 -65.77954 28.02362c-36.32904 0 -65.77954 -12.546631 -65.77954 -28.02362l0 0c0 -15.477051 29.4505 -28.02362 65.77954 -28.02362c36.32904 0 65.77954 12.54657 65.77954 28.02362l0 56.04724c0 15.47699 -29.4505 28.02362 -65.77954 28.02362c-36.32904 0 -65.77954 -12.546631 -65.77954 -28.02362l0 -56.04724" fill-rule="nonzero"></path><path fill="#cfe2f3" d="m447.76248 609.6457l0 0c0 15.47699 29.45047 28.02362 65.77951 28.02362c36.32904 0 65.77954 -12.546631 65.77954 -28.02362l0 56.04724c0 15.47699 -29.4505 28.02362 -65.77954 28.02362c-36.32904 0 -65.77951 -12.546631 -65.77951 -28.02362z" fill-rule="nonzero"></path><path fill="#e2edf7" d="m447.76248 609.6457l0 0c0 -15.477051 29.45047 -28.02362 65.77951 -28.02362c36.32904 0 65.77954 12.54657 65.77954 28.02362l0 0c0 15.47699 -29.4505 28.02362 -65.77954 28.02362c-36.32904 0 -65.77951 -12.546631 -65.77951 -28.02362z" fill-rule="nonzero"></path><path fill="#000000" fill-opacity="0.0" d="m579.32153 609.6457l0 0c0 15.47699 -29.4505 28.02362 -65.77954 28.02362c-36.32904 0 -65.77951 -12.546631 -65.77951 -28.02362l0 0c0 -15.477051 29.45047 -28.02362 65.77951 -28.02362c36.32904 0 65.77954 12.54657 65.77954 28.02362l0 56.04724c0 15.47699 -29.4505 28.02362 -65.77954 28.02362c-36.32904 0 -65.77951 -12.546631 -65.77951 -28.02362l0 -56.04724" fill-rule="nonzero"></path><path stroke="#000000" stroke-width="1.0" stroke-linejoin="round" stroke-linecap="butt" d="m579.32153 609.6457l0 0c0 15.47699 -29.4505 28.02362 -65.77954 28.02362c-36.32904 0 -65.77951 -12.546631 -65.77951 -28.02362l0 0c0 -15.477051 29.45047 -28.02362 65.77951 -28.02362c36.32904 0 65.77954 12.54657 65.77954 28.02362l0 56.04724c0 15.47699 -29.4505 28.02362 -65.77954 28.02362c-36.32904 0 -65.77951 -12.546631 -65.77951 -28.02362l0 -56.04724" fill-rule="nonzero"></path><path fill="#cfe2f3" d="m347.65747 609.6457l0 0c0 15.47699 29.4505 28.02362 65.77954 28.02362c36.32904 0 65.77951 -12.546631 65.77951 -28.02362l0 56.04724c0 15.47699 -29.45047 28.02362 -65.77951 28.02362c-36.32904 0 -65.77954 -12.546631 -65.77954 -28.02362z" fill-rule="nonzero"></path><path fill="#e2edf7" d="m347.65747 609.6457l0 0c0 -15.477051 29.4505 -28.02362 65.77954 -28.02362c36.32904 0 65.77951 12.54657 65.77951 28.02362l0 0c0 15.47699 -29.45047 28.02362 -65.77951 28.02362c-36.32904 0 -65.77954 -12.546631 -65.77954 -28.02362z" fill-rule="nonzero"></path><path fill="#000000" fill-opacity="0.0" d="m479.21652 609.6457l0 0c0 15.47699 -29.45047 28.02362 -65.77951 28.02362c-36.32904 0 -65.77954 -12.546631 -65.77954 -28.02362l0 0c0 -15.477051 29.4505 -28.02362 65.77954 -28.02362c36.32904 0 65.77951 12.54657 65.77951 28.02362l0 56.04724c0 15.47699 -29.45047 28.02362 -65.77951 28.02362c-36.32904 0 -65.77954 -12.546631 -65.77954 -28.02362l0 -56.04724" fill-rule="nonzero"></path><path stroke="#000000" stroke-width="1.0" stroke-linejoin="round" stroke-linecap="butt" d="m479.21652 609.6457l0 0c0 15.47699 -29.45047 28.02362 -65.77951 28.02362c-36.32904 0 -65.77954 -12.546631 -65.77954 -28.02362l0 0c0 -15.477051 29.4505 -28.02362 65.77954 -28.02362c36.32904 0 65.77951 12.54657 65.77951 28.02362l0 56.04724c0 15.47699 -29.45047 28.02362 -65.77951 28.02362c-36.32904 0 -65.77954 -12.546631 -65.77954 -28.02362l0 -56.04724" fill-rule="nonzero"></path><path fill="#cfe2f3" d="m247.2769 609.6457l0 0c0 15.47699 29.450485 28.02362 65.779526 28.02362c36.32904 0 65.77954 -12.546631 65.77954 -28.02362l0 56.04724c0 15.47699 -29.4505 28.02362 -65.77954 28.02362c-36.32904 0 -65.779526 -12.546631 -65.779526 -28.02362z" fill-rule="nonzero"></path><path fill="#e2edf7" d="m247.2769 609.6457l0 0c0 -15.477051 29.450485 -28.02362 65.779526 -28.02362c36.32904 0 65.77954 12.54657 65.77954 28.02362l0 0c0 15.47699 -29.4505 28.02362 -65.77954 28.02362c-36.32904 0 -65.779526 -12.546631 -65.779526 -28.02362z" fill-rule="nonzero"></path><path fill="#000000" fill-opacity="0.0" d="m378.83597 609.6457l0 0c0 15.47699 -29.4505 28.02362 -65.77954 28.02362c-36.32904 0 -65.779526 -12.546631 -65.779526 -28.02362l0 0c0 -15.477051 29.450485 -28.02362 65.779526 -28.02362c36.32904 0 65.77954 12.54657 65.77954 28.02362l0 56.04724c0 15.47699 -29.4505 28.02362 -65.77954 28.02362c-36.32904 0 -65.779526 -12.546631 -65.779526 -28.02362l0 -56.04724" fill-rule="nonzero"></path><path stroke="#000000" stroke-width="1.0" stroke-linejoin="round" stroke-linecap="butt" d="m378.83597 609.6457l0 0c0 15.47699 -29.4505 28.02362 -65.77954 28.02362c-36.32904 0 -65.779526 -12.546631 -65.779526 -28.02362l0 0c0 -15.477051 29.450485 -28.02362 65.779526 -28.02362c36.32904 0 65.77954 12.54657 65.77954 28.02362l0 56.04724c0 15.47699 -29.4505 28.02362 -65.77954 28.02362c-36.32904 0 -65.779526 -12.546631 -65.779526 -28.02362l0 -56.04724" fill-rule="nonzero"></path><path fill="#cfe2f3" d="m640.2507 625.6457l0 0c0 15.47699 29.4505 28.02362 65.77954 28.02362c36.32898 0 65.77948 -12.546631 65.77948 -28.02362l0 56.04724c0 15.47699 -29.4505 28.02362 -65.77948 28.02362c-36.32904 0 -65.77954 -12.546631 -65.77954 -28.02362z" fill-rule="nonzero"></path><path fill="#e2edf7" d="m640.2507 625.6457l0 0c0 -15.477051 29.4505 -28.02362 65.77954 -28.02362c36.32898 0 65.77948 12.54657 65.77948 28.02362l0 0c0 15.47699 -29.4505 28.02362 -65.77948 28.02362c-36.32904 0 -65.77954 -12.546631 -65.77954 -28.02362z" fill-rule="nonzero"></path><path fill="#000000" fill-opacity="0.0" d="m771.8097 625.6457l0 0c0 15.47699 -29.4505 28.02362 -65.77948 28.02362c-36.32904 0 -65.77954 -12.546631 -65.77954 -28.02362l0 0c0 -15.477051 29.4505 -28.02362 65.77954 -28.02362c36.32898 0 65.77948 12.54657 65.77948 28.02362l0 56.04724c0 15.47699 -29.4505 28.02362 -65.77948 28.02362c-36.32904 0 -65.77954 -12.546631 -65.77954 -28.02362l0 -56.04724" fill-rule="nonzero"></path><path stroke="#000000" stroke-width="1.0" stroke-linejoin="round" stroke-linecap="butt" d="m771.8097 625.6457l0 0c0 15.47699 -29.4505 28.02362 -65.77948 28.02362c-36.32904 0 -65.77954 -12.546631 -65.77954 -28.02362l0 0c0 -15.477051 29.4505 -28.02362 65.77954 -28.02362c36.32898 0 65.77948 12.54657 65.77948 28.02362l0 56.04724c0 15.47699 -29.4505 28.02362 -65.77948 28.02362c-36.32904 0 -65.77954 -12.546631 -65.77954 -28.02362l0 -56.04724" fill-rule="nonzero"></path><path fill="#cfe2f3" d="m557.9383 625.6457l0 0c0 15.47699 29.4505 28.02362 65.77954 28.02362c36.32904 0 65.77954 -12.546631 65.77954 -28.02362l0 56.04724c0 15.47699 -29.4505 28.02362 -65.77954 28.02362c-36.32904 0 -65.77954 -12.546631 -65.77954 -28.02362z" fill-rule="nonzero"></path><path fill="#e2edf7" d="m557.9383 625.6457l0 0c0 -15.477051 29.4505 -28.02362 65.77954 -28.02362c36.32904 0 65.77954 12.54657 65.77954 28.02362l0 0c0 15.47699 -29.4505 28.02362 -65.77954 28.02362c-36.32904 0 -65.77954 -12.546631 -65.77954 -28.02362z" fill-rule="nonzero"></path><path fill="#000000" fill-opacity="0.0" d="m689.4974 625.6457l0 0c0 15.47699 -29.4505 28.02362 -65.77954 28.02362c-36.32904 0 -65.77954 -12.546631 -65.77954 -28.02362l0 0c0 -15.477051 29.4505 -28.02362 65.77954 -28.02362c36.32904 0 65.77954 12.54657 65.77954 28.02362l0 56.04724c0 15.47699 -29.4505 28.02362 -65.77954 28.02362c-36.32904 0 -65.77954 -12.546631 -65.77954 -28.02362l0 -56.04724" fill-rule="nonzero"></path><path stroke="#000000" stroke-width="1.0" stroke-linejoin="round" stroke-linecap="butt" d="m689.4974 625.6457l0 0c0 15.47699 -29.4505 28.02362 -65.77954 28.02362c-36.32904 0 -65.77954 -12.546631 -65.77954 -28.02362l0 0c0 -15.477051 29.4505 -28.02362 65.77954 -28.02362c36.32904 0 65.77954 12.54657 65.77954 28.02362l0 56.04724c0 15.47699 -29.4505 28.02362 -65.77954 28.02362c-36.32904 0 -65.77954 -12.546631 -65.77954 -28.02362l0 -56.04724" fill-rule="nonzero"></path><path fill="#cfe2f3" d="m463.76248 625.6457l0 0c0 15.47699 29.45047 28.02362 65.77951 28.02362c36.32904 0 65.77954 -12.546631 65.77954 -28.02362l0 56.04724c0 15.47699 -29.4505 28.02362 -65.77954 28.02362c-36.32904 0 -65.77951 -12.546631 -65.77951 -28.02362z" fill-rule="nonzero"></path><path fill="#e2edf7" d="m463.76248 625.6457l0 0c0 -15.477051 29.45047 -28.02362 65.77951 -28.02362c36.32904 0 65.77954 12.54657 65.77954 28.02362l0 0c0 15.47699 -29.4505 28.02362 -65.77954 28.02362c-36.32904 0 -65.77951 -12.546631 -65.77951 -28.02362z" fill-rule="nonzero"></path><path fill="#000000" fill-opacity="0.0" d="m595.32153 625.6457l0 0c0 15.47699 -29.4505 28.02362 -65.77954 28.02362c-36.32904 0 -65.77951 -12.546631 -65.77951 -28.02362l0 0c0 -15.477051 29.45047 -28.02362 65.77951 -28.02362c36.32904 0 65.77954 12.54657 65.77954 28.02362l0 56.04724c0 15.47699 -29.4505 28.02362 -65.77954 28.02362c-36.32904 0 -65.77951 -12.546631 -65.77951 -28.02362l0 -56.04724" fill-rule="nonzero"></path><path stroke="#000000" stroke-width="1.0" stroke-linejoin="round" stroke-linecap="butt" d="m595.32153 625.6457l0 0c0 15.47699 -29.4505 28.02362 -65.77954 28.02362c-36.32904 0 -65.77951 -12.546631 -65.77951 -28.02362l0 0c0 -15.477051 29.45047 -28.02362 65.77951 -28.02362c36.32904 0 65.77954 12.54657 65.77954 28.02362l0 56.04724c0 15.47699 -29.4505 28.02362 -65.77954 28.02362c-36.32904 0 -65.77951 -12.546631 -65.77951 -28.02362l0 -56.04724" fill-rule="nonzero"></path><path fill="#cfe2f3" d="m363.65747 625.6457l0 0c0 15.47699 29.4505 28.02362 65.77954 28.02362c36.32904 0 65.77951 -12.546631 65.77951 -28.02362l0 56.04724c0 15.47699 -29.45047 28.02362 -65.77951 28.02362c-36.32904 0 -65.77954 -12.546631 -65.77954 -28.02362z" fill-rule="nonzero"></path><path fill="#e2edf7" d="m363.65747 625.6457l0 0c0 -15.477051 29.4505 -28.02362 65.77954 -28.02362c36.32904 0 65.77951 12.54657 65.77951 28.02362l0 0c0 15.47699 -29.45047 28.02362 -65.77951 28.02362c-36.32904 0 -65.77954 -12.546631 -65.77954 -28.02362z" fill-rule="nonzero"></path><path fill="#000000" fill-opacity="0.0" d="m495.21652 625.6457l0 0c0 15.47699 -29.45047 28.02362 -65.77951 28.02362c-36.32904 0 -65.77954 -12.546631 -65.77954 -28.02362l0 0c0 -15.477051 29.4505 -28.02362 65.77954 -28.02362c36.32904 0 65.77951 12.54657 65.77951 28.02362l0 56.04724c0 15.47699 -29.45047 28.02362 -65.77951 28.02362c-36.32904 0 -65.77954 -12.546631 -65.77954 -28.02362l0 -56.04724" fill-rule="nonzero"></path><path stroke="#000000" stroke-width="1.0" stroke-linejoin="round" stroke-linecap="butt" d="m495.21652 625.6457l0 0c0 15.47699 -29.45047 28.02362 -65.77951 28.02362c-36.32904 0 -65.77954 -12.546631 -65.77954 -28.02362l0 0c0 -15.477051 29.4505 -28.02362 65.77954 -28.02362c36.32904 0 65.77951 12.54657 65.77951 28.02362l0 56.04724c0 15.47699 -29.45047 28.02362 -65.77951 28.02362c-36.32904 0 -65.77954 -12.546631 -65.77954 -28.02362l0 -56.04724" fill-rule="nonzero"></path><path fill="#cfe2f3" d="m263.27692 625.6457l0 0c0 15.47699 29.45047 28.02362 65.77951 28.02362c36.32904 0 65.77954 -12.546631 65.77954 -28.02362l0 56.04724c0 15.47699 -29.4505 28.02362 -65.77954 28.02362c-36.32904 0 -65.77951 -12.546631 -65.77951 -28.02362z" fill-rule="nonzero"></path><path fill="#e2edf7" d="m263.27692 625.6457l0 0c0 -15.477051 29.45047 -28.02362 65.77951 -28.02362c36.32904 0 65.77954 12.54657 65.77954 28.02362l0 0c0 15.47699 -29.4505 28.02362 -65.77954 28.02362c-36.32904 0 -65.77951 -12.546631 -65.77951 -28.02362z" fill-rule="nonzero"></path><path fill="#000000" fill-opacity="0.0" d="m394.83597 625.6457l0 0c0 15.47699 -29.4505 28.02362 -65.77954 28.02362c-36.32904 0 -65.77951 -12.546631 -65.77951 -28.02362l0 0c0 -15.477051 29.45047 -28.02362 65.77951 -28.02362c36.32904 0 65.77954 12.54657 65.77954 28.02362l0 56.04724c0 15.47699 -29.4505 28.02362 -65.77954 28.02362c-36.32904 0 -65.77951 -12.546631 -65.77951 -28.02362l0 -56.04724" fill-rule="nonzero"></path><path stroke="#000000" stroke-width="1.0" stroke-linejoin="round" stroke-linecap="butt" d="m394.83597 625.6457l0 0c0 15.47699 -29.4505 28.02362 -65.77954 28.02362c-36.32904 0 -65.77951 -12.546631 -65.77951 -28.02362l0 0c0 -15.477051 29.45047 -28.02362 65.77951 -28.02362c36.32904 0 65.77954 12.54657 65.77954 28.02362l0 56.04724c0 15.47699 -29.4505 28.02362 -65.77954 28.02362c-36.32904 0 -65.77951 -12.546631 -65.77951 -28.02362l0 -56.04724" fill-rule="nonzero"></path><path fill="#000000" fill-opacity="0.0" d="m479.9999 167.86981c0 15.139252 -20.57483 22.798203 -41.149628 30.278519c-20.574799 7.480316 -41.149597 14.781998 -41.149597 29.563995" fill-rule="nonzero"></path><path stroke="#f6b26b" stroke-width="4.0" stroke-linejoin="round" stroke-linecap="butt" stroke-dasharray="16.0,12.0,4.0,12.0" d="m479.9999 167.86981c0 15.139252 -20.57483 22.798203 -41.149628 30.278519c-20.574799 7.480316 -41.149597 14.781998 -41.149597 29.563995" fill-rule="nonzero"></path><path fill="#000000" fill-opacity="0.0" d="m397.68634 336.15485c0 15.51712 20.57483 25.817688 41.149628 31.03421c20.574799 5.2165527 41.149597 5.34906 41.149597 10.69809" fill-rule="nonzero"></path><path stroke="#3c78d8" stroke-width="4.0" stroke-linejoin="round" stroke-linecap="butt" stroke-dasharray="16.0,12.0" d="m397.68634 336.15485c0 15.51712 20.57483 25.817688 41.149628 31.03421c20.574799 5.2165527 41.149597 5.34906 41.149597 10.69809" fill-rule="nonzero"></path><path fill="#000000" fill-opacity="0.0" d="m479.9987 489.98163c0 22.910156 -16.637787 34.363647 -33.275604 45.820374c-16.637787 11.456665 -33.275574 22.916565 -33.275574 45.83319" fill-rule="nonzero"></path><path stroke="#cc0000" stroke-width="4.0" stroke-linejoin="round" stroke-linecap="butt" stroke-dasharray="32.0,12.0" d="m479.9987 489.98163c0 22.910156 -16.637787 34.363647 -33.275604 45.820374c-16.637787 11.456665 -33.275574 22.916565 -33.275574 45.83319" fill-rule="nonzero"></path><path fill="#000000" fill-opacity="0.0" d="m44.569553 263.66666l154.70866 0l0 32.881897l-154.70866 0z" fill-rule="nonzero"></path><path fill="#000000" d="m55.038303 290.58667l0 -13.59375l4.6875 0q1.578125 0 2.421875 0.1875q1.15625 0.265625 1.9843788 0.96875q1.078125 0.921875 1.609375 2.34375q0.53125 1.40625 0.53125 3.21875q0 1.546875 -0.359375 2.75q-0.359375 1.1875 -0.921875 1.984375q-0.5625 0.78125 -1.2343788 1.234375q-0.671875 0.4375 -1.625 0.671875q-0.953125 0.234375 -2.1875 0.234375l-4.90625 0zm1.796875 -1.609375l2.90625 0q1.34375 0 2.109375 -0.25q0.765625 -0.25 1.21875 -0.703125q0.640625 -0.640625 1.0000038 -1.71875q0.359375 -1.078125 0.359375 -2.625q0 -2.125 -0.7031288 -3.265625q-0.703125 -1.15625 -1.703125 -1.546875q-0.71875 -0.28125 -2.328125 -0.28125l-2.859375 0l0 10.390625zm21.3792 -3.15625l1.796875 0.453125q-0.5625 2.21875 -2.03125 3.390625q-1.46875 1.15625 -3.59375 1.15625q-2.203125 0 -3.578125 -0.890625q-1.375 -0.90625 -2.09375 -2.59375q-0.71875 -1.703125 -0.71875 -3.65625q0 -2.125 0.796875 -3.703125q0.8125 -1.578125 2.3125 -2.390625q1.5 -0.828125 3.296875 -0.828125q2.046875 0 3.4375 1.046875q1.390625 1.03125 1.9375 2.90625l-1.765625 0.421875q-0.46875 -1.484375 -1.375 -2.15625q-0.90625 -0.6875 -2.265625 -0.6875q-1.5625 0 -2.625 0.75q-1.046875 0.75 -1.484375 2.03125q-0.421875 1.265625 -0.421875 2.609375q0 1.734375 0.5 3.03125q0.515625 1.28125 1.578125 1.921875q1.078125 0.640625 2.3125 0.640625q1.515625 0 2.5625 -0.859375q1.046875 -0.875 1.421875 -2.59375zm8.984375 4.765625l0 -13.59375l6.03125 0q1.8125 0 2.75 0.359375q0.953125 0.359375 1.515625 1.296875q0.5625 0.921875 0.5625 2.046875q0 1.453125 -0.9375 2.453125q-0.921875 0.984375 -2.890625 1.25q0.71875 0.34375 1.09375 0.671875q0.78125 0.734375 1.484375 1.8125l2.375 3.703125l-2.265625 0l-1.796875 -2.828125q-0.796875 -1.21875 -1.3125 -1.875q-0.5 -0.65625 -0.90625 -0.90625q-0.40625 -0.265625 -0.8125 -0.359375q-0.3125 -0.078125 -1.015625 -0.078125l-2.078125 0l0 6.046875l-1.796875 0zm1.796875 -7.59375l3.859375 0q1.234375 0 1.921875 -0.25q0.703125 -0.265625 1.0625 -0.828125q0.375 -0.5625 0.375 -1.21875q0 -0.96875 -0.703125 -1.578125q-0.703125 -0.625 -2.21875 -0.625l-4.296875 0l0 4.5zm10.801071 2.671875q0 -2.734375 1.53125 -4.0625q1.265625 -1.09375 3.09375 -1.09375q2.03125 0 3.3125 1.34375q1.296875 1.328125 1.296875 3.671875q0 1.90625 -0.578125 3.0q-0.5625 1.078125 -1.65625 1.6875q-1.078125 0.59375 -2.375 0.59375q-2.0625 0 -3.34375 -1.328125q-1.28125 -1.328125 -1.28125 -3.8125zm1.71875 0q0 1.890625 0.828125 2.828125q0.828125 0.9375 2.078125 0.9375q1.25 0 2.0625 -0.9375q0.828125 -0.953125 0.828125 -2.890625q0 -1.828125 -0.828125 -2.765625q-0.828125 -0.9375 -2.0625 -0.9375q-1.25 0 -2.078125 0.9375q-0.828125 0.9375 -0.828125 2.828125zm15.735092 4.921875l0 -1.453125q-1.140625 1.671875 -3.125 1.671875q-0.859375 0 -1.625 -0.328125q-0.75 -0.34375 -1.125 -0.84375q-0.359375 -0.5 -0.515625 -1.234375q-0.09375 -0.5 -0.09375 -1.5625l0 -6.109375l1.671875 0l0 5.46875q0 1.3125 0.09375 1.765625q0.15625 0.65625 0.671875 1.03125q0.515625 0.375 1.265625 0.375q0.75 0 1.40625 -0.375q0.65625 -0.390625 0.921875 -1.046875q0.28125 -0.671875 0.28125 -1.9375l0 -5.28125l1.671875 0l0 9.859375l-1.5 0zm7.578842 -1.5l0.234375 1.484375q-0.703125 0.140625 -1.265625 0.140625q-0.90625 0 -1.40625 -0.28125q-0.5 -0.296875 -0.703125 -0.75q-0.203125 -0.46875 -0.203125 -1.984375l0 -5.65625l-1.234375 0l0 -1.3125l1.234375 0l0 -2.4375l1.65625 -1.0l0 3.4375l1.6875 0l0 1.3125l-1.6875 0l0 5.75q0 0.71875 0.078125 0.921875q0.09375 0.203125 0.296875 0.328125q0.203125 0.125 0.578125 0.125q0.265625 0 0.734375 -0.078125zm8.277046 -1.671875l1.71875 0.21875q-0.40625 1.5 -1.515625 2.34375q-1.09375 0.828125 -2.8125 0.828125q-2.15625 0 -3.4218674 -1.328125q-1.265625 -1.328125 -1.265625 -3.734375q0 -2.484375 1.265625 -3.859375q1.2812424 -1.375 3.3281174 -1.375q1.984375 0 3.234375 1.34375q1.25 1.34375 1.25 3.796875q0 0.140625 -0.015625 0.4375l-7.3437424 0q0.09375 1.625 0.9218674 2.484375q0.828125 0.859375 2.0625 0.859375q0.90625 0 1.546875 -0.46875q0.65625 -0.484375 1.046875 -1.546875zm-5.4843674 -2.703125l5.4999924 0q-0.109375 -1.234375 -0.625 -1.859375q-0.796875 -0.96875 -2.078125 -0.96875q-1.140625 0 -1.9375 0.78125q-0.7812424 0.765625 -0.8593674 2.046875zm9.09446 5.875l0 -9.859375l1.5 0l0 1.5q0.578125 -1.046875 1.0625 -1.375q0.484375 -0.34375 1.078125 -0.34375q0.84375 0 1.71875 0.546875l-0.578125 1.546875q-0.609375 -0.359375 -1.234375 -0.359375q-0.546875 0 -0.984375 0.328125q-0.421875 0.328125 -0.609375 0.90625q-0.28125 0.890625 -0.28125 1.953125l0 5.15625l-1.671875 0zm5.556427 -2.9375l1.65625 -0.265625q0.140625 1.0 0.765625 1.53125q0.640625 0.515625 1.78125 0.515625q1.15625 0 1.703125 -0.46875q0.5625 -0.46875 0.5625 -1.09375q0 -0.5625 -0.484375 -0.890625q-0.34375 -0.21875 -1.703125 -0.5625q-1.84375 -0.46875 -2.5625 -0.796875q-0.703125 -0.34375 -1.078125 -0.9375q-0.359375 -0.609375 -0.359375 -1.328125q0 -0.65625 0.296875 -1.21875q0.3125 -0.5625 0.828125 -0.9375q0.390625 -0.28125 1.0625 -0.484375q0.671875 -0.203125 1.4375 -0.203125q1.171875 0 2.046875 0.34375q0.875 0.328125 1.28125 0.90625q0.421875 0.5625 0.578125 1.515625l-1.625 0.21875q-0.109375 -0.75 -0.65625 -1.171875q-0.53125 -0.4375 -1.5 -0.4375q-1.15625 0 -1.640625 0.390625q-0.484375 0.375 -0.484375 0.875q0 0.328125 0.203125 0.59375q0.203125 0.265625 0.640625 0.4375q0.25 0.09375 1.46875 0.4375q1.765625 0.46875 2.46875 0.765625q0.703125 0.296875 1.09375 0.875q0.40625 0.578125 0.40625 1.4375q0 0.828125 -0.484375 1.578125q-0.484375 0.734375 -1.40625 1.140625q-0.921875 0.390625 -2.078125 0.390625q-1.921875 0 -2.9375 -0.796875q-1.0 -0.796875 -1.28125 -2.359375z" fill-rule="nonzero"></path><path fill="#000000" fill-opacity="0.0" d="m44.569553 417.49344l154.70866 0l0 32.881897l-154.70866 0z" fill-rule="nonzero"></path><path fill="#000000" d="m64.74143 439.6478l1.796875 0.453125q-0.5625 2.21875 -2.03125 3.390625q-1.4687538 1.15625 -3.5937538 1.15625q-2.203125 0 -3.578125 -0.890625q-1.375 -0.90625 -2.09375 -2.59375q-0.71875 -1.703125 -0.71875 -3.65625q0 -2.125 0.796875 -3.703125q0.8125 -1.578125 2.3125 -2.390625q1.5 -0.828125 3.296875 -0.828125q2.046875 0 3.4375038 1.046875q1.390625 1.03125 1.9375 2.90625l-1.765625 0.421875q-0.46875 -1.484375 -1.3750038 -2.15625q-0.90625 -0.6875 -2.265625 -0.6875q-1.5625 0 -2.625 0.75q-1.046875 0.75 -1.484375 2.03125q-0.421875 1.265625 -0.421875 2.609375q0 1.734375 0.5 3.03125q0.515625 1.28125 1.578125 1.921875q1.078125 0.640625 2.3125 0.640625q1.515625 0 2.5625 -0.859375q1.0468788 -0.875 1.4218788 -2.59375zm3.5198212 4.765625l0 -13.59375l1.671875 0l0 13.59375l-1.671875 0zm10.629196 0l0 -1.453125q-1.140625 1.671875 -3.125 1.671875q-0.859375 0 -1.625 -0.328125q-0.75 -0.34375 -1.125 -0.84375q-0.359375 -0.5 -0.515625 -1.234375q-0.09375 -0.5 -0.09375 -1.5625l0 -6.109375l1.671875 0l0 5.46875q0 1.3125 0.09375 1.765625q0.15625 0.65625 0.671875 1.03125q0.515625 0.375 1.265625 0.375q0.75 0 1.40625 -0.375q0.65625 -0.390625 0.921875 -1.046875q0.28125 -0.671875 0.28125 -1.9375l0 -5.28125l1.671875 0l0 9.859375l-1.5 0zm3.2507172 -2.9375l1.65625 -0.265625q0.140625 1.0 0.765625 1.53125q0.640625 0.515625 1.78125 0.515625q1.15625 0 1.703125 -0.46875q0.5625 -0.46875 0.5625 -1.09375q0 -0.5625 -0.484375 -0.890625q-0.34375 -0.21875 -1.703125 -0.5625q-1.84375 -0.46875 -2.5625 -0.796875q-0.703125 -0.34375 -1.078125 -0.9375q-0.359375 -0.609375 -0.359375 -1.328125q0 -0.65625 0.296875 -1.21875q0.3125 -0.5625 0.828125 -0.9375q0.390625 -0.28125 1.0625 -0.484375q0.671875 -0.203125 1.4375 -0.203125q1.171875 0 2.046875 0.34375q0.875 0.328125 1.28125 0.90625q0.421875 0.5625 0.578125 1.515625l-1.625 0.21875q-0.109375 -0.75 -0.65625 -1.171875q-0.53125 -0.4375 -1.5 -0.4375q-1.15625 0 -1.640625 0.390625q-0.484375 0.375 -0.484375 0.875q0 0.328125 0.203125 0.59375q0.203125 0.265625 0.640625 0.4375q0.25 0.09375 1.46875 0.4375q1.765625 0.46875 2.46875 0.765625q0.703125 0.296875 1.09375 0.875q0.40625 0.578125 0.40625 1.4375q0 0.828125 -0.484375 1.578125q-0.484375 0.734375 -1.40625 1.140625q-0.921875 0.390625 -2.078125 0.390625q-1.921875 0 -2.9375 -0.796875q-1.0 -0.796875 -1.28125 -2.359375zm13.65625 1.4375l0.234375 1.484375q-0.703125 0.140625 -1.265625 0.140625q-0.90625 0 -1.40625 -0.28125q-0.5 -0.296875 -0.703125 -0.75q-0.203125 -0.46875 -0.203125 -1.984375l0 -5.65625l-1.234375 0l0 -1.3125l1.234375 0l0 -2.4375l1.65625 -1.0l0 3.4375l1.6875 0l0 1.3125l-1.6875 0l0 5.75q0 0.71875 0.078125 0.921875q0.09375 0.203125 0.296875 0.328125q0.203125 0.125 0.578125 0.125q0.265625 0 0.734375 -0.078125zm8.277054 -1.671875l1.71875 0.21875q-0.40625 1.5 -1.515625 2.34375q-1.09375 0.828125 -2.8125 0.828125q-2.15625 0 -3.421875 -1.328125q-1.265625 -1.328125 -1.265625 -3.734375q0 -2.484375 1.265625 -3.859375q1.28125 -1.375 3.328125 -1.375q1.984375 0 3.234375 1.34375q1.25 1.34375 1.25 3.796875q0 0.140625 -0.015625 0.4375l-7.34375 0q0.09375 1.625 0.921875 2.484375q0.828125 0.859375 2.0625 0.859375q0.90625 0 1.546875 -0.46875q0.65625 -0.484375 1.046875 -1.546875zm-5.484375 -2.703125l5.5 0q-0.109375 -1.234375 -0.625 -1.859375q-0.796875 -0.96875 -2.078125 -0.96875q-1.140625 0 -1.9375 0.78125q-0.78125 0.765625 -0.859375 2.046875zm9.094467 5.875l0 -9.859375l1.5 0l0 1.5q0.578125 -1.046875 1.0625 -1.375q0.484375 -0.34375 1.078125 -0.34375q0.84375 0 1.71875 0.546875l-0.578125 1.546875q-0.609375 -0.359375 -1.234375 -0.359375q-0.546875 0 -0.984375 0.328125q-0.421875 0.328125 -0.609375 0.90625q-0.28125 0.890625 -0.28125 1.953125l0 5.15625l-1.671875 0zm11.927231 0l0 -13.59375l1.8125 0l0 13.59375l-1.8125 0zm4.667679 0l0 -9.859375l1.5 0l0 1.40625q1.09375 -1.625 3.1406174 -1.625q0.890625 0 1.640625 0.328125q0.75 0.3125 1.109375 0.84375q0.375 0.515625 0.53125 1.21875q0.09375 0.46875 0.09375 1.625l0 6.0625l-1.671875 0l0 -6.0q0 -1.015625 -0.203125 -1.515625q-0.1875 -0.515625 -0.6875 -0.8125q-0.5 -0.296875 -1.171875 -0.296875q-1.0624924 0 -1.8437424 0.671875q-0.765625 0.671875 -0.765625 2.578125l0 5.375l-1.671875 0zm10.078835 0.8125l1.609375 0.25q0.109375 0.75 0.578125 1.09375q0.609375 0.453125 1.6875 0.453125q1.171875 0 1.796875 -0.46875q0.625 -0.453125 0.859375 -1.28125q0.125 -0.515625 0.109375 -2.15625q-1.09375 1.296875 -2.71875 1.296875q-2.03125 0 -3.15625 -1.46875q-1.109375 -1.46875 -1.109375 -3.515625q0 -1.40625 0.515625 -2.59375q0.515625 -1.203125 1.484375 -1.84375q0.96875 -0.65625 2.265625 -0.65625q1.75 0 2.875 1.40625l0 -1.1875l1.546875 0l0 8.515625q0 2.3125 -0.46875 3.265625q-0.46875 0.96875 -1.484375 1.515625q-1.015625 0.5625 -2.5 0.5625q-1.765625 0 -2.859375 -0.796875q-1.078125 -0.796875 -1.03125 -2.390625zm1.375 -5.921875q0 1.953125 0.765625 2.84375q0.78125 0.890625 1.9375 0.890625q1.140625 0 1.921875 -0.890625q0.78125 -0.890625 0.78125 -2.78125q0 -1.8125 -0.8125 -2.71875q-0.796875 -0.921875 -1.921875 -0.921875q-1.109375 0 -1.890625 0.90625q-0.78125 0.890625 -0.78125 2.671875zm9.281967 5.109375l0 -9.859375l1.5 0l0 1.5q0.578125 -1.046875 1.0625 -1.375q0.484375 -0.34375 1.078125 -0.34375q0.84375 0 1.71875 0.546875l-0.578125 1.546875q-0.609375 -0.359375 -1.234375 -0.359375q-0.546875 0 -0.984375 0.328125q-0.421875 0.328125 -0.609375 0.90625q-0.28125 0.890625 -0.28125 1.953125l0 5.15625l-1.671875 0zm12.978302 -3.171875l1.71875 0.21875q-0.40625 1.5 -1.515625 2.34375q-1.09375 0.828125 -2.8125 0.828125q-2.15625 0 -3.421875 -1.328125q-1.265625 -1.328125 -1.265625 -3.734375q0 -2.484375 1.265625 -3.859375q1.28125 -1.375 3.328125 -1.375q1.984375 0 3.234375 1.34375q1.25 1.34375 1.25 3.796875q0 0.140625 -0.015625 0.4375l-7.34375 0q0.09375 1.625 0.921875 2.484375q0.828125 0.859375 2.0625 0.859375q0.90625 0 1.546875 -0.46875q0.65625 -0.484375 1.046875 -1.546875zm-5.484375 -2.703125l5.5 0q-0.109375 -1.234375 -0.625 -1.859375q-0.796875 -0.96875 -2.078125 -0.96875q-1.140625 0 -1.9375 0.78125q-0.78125 0.765625 -0.859375 2.046875zm8.438217 2.9375l1.65625 -0.265625q0.140625 1.0 0.765625 1.53125q0.640625 0.515625 1.78125 0.515625q1.15625 0 1.703125 -0.46875q0.5625 -0.46875 0.5625 -1.09375q0 -0.5625 -0.484375 -0.890625q-0.34375 -0.21875 -1.703125 -0.5625q-1.84375 -0.46875 -2.5625 -0.796875q-0.703125 -0.34375 -1.078125 -0.9375q-0.359375 -0.609375 -0.359375 -1.328125q0 -0.65625 0.296875 -1.21875q0.3125 -0.5625 0.828125 -0.9375q0.390625 -0.28125 1.0625 -0.484375q0.671875 -0.203125 1.4375 -0.203125q1.171875 0 2.046875 0.34375q0.875 0.328125 1.28125 0.90625q0.421875 0.5625 0.578125 1.515625l-1.625 0.21875q-0.109375 -0.75 -0.65625 -1.171875q-0.53125 -0.4375 -1.5 -0.4375q-1.15625 0 -1.640625 0.390625q-0.484375 0.375 -0.484375 0.875q0 0.328125 0.203125 0.59375q0.203125 0.265625 0.640625 0.4375q0.25 0.09375 1.46875 0.4375q1.765625 0.46875 2.46875 0.765625q0.703125 0.296875 1.09375 0.875q0.40625 0.578125 0.40625 1.4375q0 0.828125 -0.484375 1.578125q-0.484375 0.734375 -1.40625 1.140625q-0.921875 0.390625 -2.078125 0.390625q-1.921875 0 -2.9375 -0.796875q-1.0 -0.796875 -1.28125 -2.359375zm9.328125 0l1.65625 -0.265625q0.140625 1.0 0.765625 1.53125q0.640625 0.515625 1.78125 0.515625q1.15625 0 1.703125 -0.46875q0.5625 -0.46875 0.5625 -1.09375q0 -0.5625 -0.484375 -0.890625q-0.34375 -0.21875 -1.703125 -0.5625q-1.84375 -0.46875 -2.5625 -0.796875q-0.703125 -0.34375 -1.078125 -0.9375q-0.359375 -0.609375 -0.359375 -1.328125q0 -0.65625 0.296875 -1.21875q0.3125 -0.5625 0.828125 -0.9375q0.390625 -0.28125 1.0625 -0.484375q0.671875 -0.203125 1.4375 -0.203125q1.171875 0 2.046875 0.34375q0.875 0.328125 1.28125 0.90625q0.421875 0.5625 0.578125 1.515625l-1.625 0.21875q-0.109375 -0.75 -0.65625 -1.171875q-0.53125 -0.4375 -1.5 -0.4375q-1.15625 0 -1.640625 0.390625q-0.484375 0.375 -0.484375 0.875q0 0.328125 0.203125 0.59375q0.203125 0.265625 0.640625 0.4375q0.25 0.09375 1.46875 0.4375q1.765625 0.46875 2.46875 0.765625q0.703125 0.296875 1.09375 0.875q0.40625 0.578125 0.40625 1.4375q0 0.828125 -0.484375 1.578125q-0.484375 0.734375 -1.40625 1.140625q-0.921875 0.390625 -2.078125 0.390625q-1.921875 0 -2.9375 -0.796875q-1.0 -0.796875 -1.28125 -2.359375z" fill-rule="nonzero"></path><path fill="#000000" fill-opacity="0.0" d="m43.74803 589.22833l154.70866 0l0 32.881897l-154.70866 0z" fill-rule="nonzero"></path><path fill="#000000" d="m63.919907 611.3827l1.796875 0.453125q-0.5625 2.21875 -2.03125 3.390625q-1.46875 1.15625 -3.59375 1.15625q-2.203125 0 -3.578125 -0.890625q-1.375 -0.90625 -2.09375 -2.59375q-0.71875 -1.703125 -0.71875 -3.65625q0 -2.125 0.796875 -3.703125q0.8125 -1.578125 2.3125 -2.390625q1.5 -0.828125 3.296875 -0.828125q2.046875 0 3.4375 1.046875q1.390625 1.03125 1.9375 2.90625l-1.765625 0.421875q-0.46875 -1.484375 -1.375 -2.15625q-0.90625 -0.6875 -2.265625 -0.6875q-1.5625 0 -2.625 0.75q-1.046875 0.75 -1.484375 2.03125q-0.421875 1.265625 -0.421875 2.609375q0 1.734375 0.5 3.03125q0.515625 1.28125 1.578125 1.921875q1.078125 0.640625 2.3125 0.640625q1.515625 0 2.5625 -0.859375q1.046875 -0.875 1.421875 -2.59375zm3.5198212 4.765625l0 -13.59375l1.671875 0l0 13.59375l-1.671875 0zm10.629196 0l0 -1.453125q-1.140625 1.671875 -3.125 1.671875q-0.859375 0 -1.625 -0.328125q-0.75 -0.34375 -1.125 -0.84375q-0.359375 -0.5 -0.515625 -1.234375q-0.09375 -0.5 -0.09375 -1.5625l0 -6.109375l1.671875 0l0 5.46875q0 1.3125 0.09375 1.765625q0.15625 0.65625 0.671875 1.03125q0.515625 0.375 1.265625 0.375q0.75 0 1.40625 -0.375q0.65625 -0.390625 0.921875 -1.046875q0.28125 -0.671875 0.28125 -1.9375l0 -5.28125l1.671875 0l0 9.859375l-1.5 0zm3.2507172 -2.9375l1.65625 -0.265625q0.140625 1.0 0.765625 1.53125q0.640625 0.515625 1.78125 0.515625q1.15625 0 1.703125 -0.46875q0.5625 -0.46875 0.5625 -1.09375q0 -0.5625 -0.484375 -0.890625q-0.34375 -0.21875 -1.703125 -0.5625q-1.84375 -0.46875 -2.5625 -0.796875q-0.703125 -0.34375 -1.078125 -0.9375q-0.359375 -0.609375 -0.359375 -1.328125q0 -0.65625 0.296875 -1.21875q0.3125 -0.5625 0.828125 -0.9375q0.390625 -0.28125 1.0625 -0.484375q0.671875 -0.203125 1.4375 -0.203125q1.171875 0 2.046875 0.34375q0.875 0.328125 1.28125 0.90625q0.421875 0.5625 0.578125 1.515625l-1.625 0.21875q-0.109375 -0.75 -0.65625 -1.171875q-0.53125 -0.4375 -1.5 -0.4375q-1.15625 0 -1.640625 0.390625q-0.484375 0.375 -0.484375 0.875q0 0.328125 0.203125 0.59375q0.203125 0.265625 0.640625 0.4375q0.25 0.09375 1.46875 0.4375q1.765625 0.46875 2.46875 0.765625q0.703125 0.296875 1.09375 0.875q0.40625 0.578125 0.40625 1.4375q0 0.828125 -0.484375 1.578125q-0.484375 0.734375 -1.40625 1.140625q-0.921875 0.390625 -2.078125 0.390625q-1.921875 0 -2.9375 -0.796875q-1.0 -0.796875 -1.28125 -2.359375zm13.65625 1.4375l0.234375 1.484375q-0.703125 0.140625 -1.265625 0.140625q-0.90625 0 -1.40625 -0.28125q-0.5 -0.296875 -0.703125 -0.75q-0.203125 -0.46875 -0.203125 -1.984375l0 -5.65625l-1.234375 0l0 -1.3125l1.234375 0l0 -2.4375l1.65625 -1.0l0 3.4375l1.6875 0l0 1.3125l-1.6875 0l0 5.75q0 0.71875 0.078125 0.921875q0.09375 0.203125 0.296875 0.328125q0.203125 0.125 0.578125 0.125q0.265625 0 0.734375 -0.078125zm8.277054 -1.671875l1.71875 0.21875q-0.40625 1.5 -1.515625 2.34375q-1.09375 0.828125 -2.8125 0.828125q-2.15625 0 -3.421875 -1.328125q-1.265625 -1.328125 -1.265625 -3.734375q0 -2.484375 1.265625 -3.859375q1.28125 -1.375 3.328125 -1.375q1.984375 0 3.234375 1.34375q1.25 1.34375 1.25 3.796875q0 0.140625 -0.015625 0.4375l-7.34375 0q0.09375 1.625 0.921875 2.484375q0.828125 0.859375 2.0625 0.859375q0.90625 0 1.546875 -0.46875q0.65625 -0.484375 1.046875 -1.546875zm-5.484375 -2.703125l5.5 0q-0.109375 -1.234375 -0.625 -1.859375q-0.796875 -0.96875 -2.078125 -0.96875q-1.140625 0 -1.9375 0.78125q-0.78125 0.765625 -0.859375 2.046875zm9.094467 5.875l0 -9.859375l1.5 0l0 1.5q0.578125 -1.046875 1.0625 -1.375q0.484375 -0.34375 1.078125 -0.34375q0.84375 0 1.71875 0.546875l-0.578125 1.546875q-0.609375 -0.359375 -1.234375 -0.359375q-0.546875 0 -0.984375 0.328125q-0.421875 0.328125 -0.609375 0.90625q-0.28125 0.890625 -0.28125 1.953125l0 5.15625l-1.671875 0zm11.630356 0l0 -13.59375l5.125 0q1.359375 0 2.078125 0.125q1.0 0.171875 1.671875 0.640625q0.671875 0.46875 1.078125 1.3125q0.421875 0.84375 0.421875 1.84375q0 1.734375 -1.109375 2.9375q-1.09375 1.203125 -3.984375 1.203125l-3.484375 0l0 5.53125l-1.796875 0zm1.796875 -7.140625l3.515625 0q1.75 0 2.46875 -0.640625q0.734375 -0.65625 0.734375 -1.828125q0 -0.859375 -0.4375 -1.46875q-0.421875 -0.609375 -1.125 -0.796875q-0.453125 -0.125 -1.671875 -0.125l-3.484375 0l0 4.859375zm9.802948 2.21875q0 -2.734375 1.53125 -4.0625q1.265625 -1.09375 3.09375 -1.09375q2.03125 0 3.3125 1.34375q1.296875 1.328125 1.296875 3.671875q0 1.90625 -0.578125 3.0q-0.5625 1.078125 -1.65625 1.6875q-1.078125 0.59375 -2.375 0.59375q-2.0625 0 -3.34375 -1.328125q-1.28125 -1.328125 -1.28125 -3.8125zm1.71875 0q0 1.890625 0.828125 2.828125q0.828125 0.9375 2.078125 0.9375q1.25 0 2.0625 -0.9375q0.828125 -0.953125 0.828125 -2.890625q0 -1.828125 -0.828125 -2.765625q-0.828125 -0.9375 -2.0625 -0.9375q-1.25 0 -2.078125 0.9375q-0.828125 0.9375 -0.828125 2.828125zm15.672592 4.921875l0 -1.25q-0.9375 1.46875 -2.75 1.46875q-1.171875 0 -2.171875 -0.640625q-0.984375 -0.65625 -1.53125 -1.8125q-0.53125 -1.171875 -0.53125 -2.6875q0 -1.46875 0.484375 -2.671875q0.5 -1.203125 1.46875 -1.84375q0.984375 -0.640625 2.203125 -0.640625q0.890625 0 1.578125 0.375q0.703125 0.375 1.140625 0.984375l0 -4.875l1.65625 0l0 13.59375l-1.546875 0zm-5.28125 -4.921875q0 1.890625 0.796875 2.828125q0.8125 0.9375 1.890625 0.9375q1.09375 0 1.859375 -0.890625q0.765625 -0.890625 0.765625 -2.734375q0 -2.015625 -0.78125 -2.953125q-0.78125 -0.953125 -1.921875 -0.953125q-1.109375 0 -1.859375 0.90625q-0.75 0.90625 -0.75 2.859375zm8.594467 1.984375l1.65625 -0.265625q0.140625 1.0 0.765625 1.53125q0.640625 0.515625 1.78125 0.515625q1.15625 0 1.703125 -0.46875q0.5625 -0.46875 0.5625 -1.09375q0 -0.5625 -0.484375 -0.890625q-0.34375 -0.21875 -1.703125 -0.5625q-1.84375 -0.46875 -2.5625 -0.796875q-0.703125 -0.34375 -1.078125 -0.9375q-0.359375 -0.609375 -0.359375 -1.328125q0 -0.65625 0.296875 -1.21875q0.3125 -0.5625 0.828125 -0.9375q0.390625 -0.28125 1.0625 -0.484375q0.671875 -0.203125 1.4375 -0.203125q1.171875 0 2.046875 0.34375q0.875 0.328125 1.28125 0.90625q0.421875 0.5625 0.578125 1.515625l-1.625 0.21875q-0.109375 -0.75 -0.65625 -1.171875q-0.53125 -0.4375 -1.5 -0.4375q-1.15625 0 -1.640625 0.390625q-0.484375 0.375 -0.484375 0.875q0 0.328125 0.203125 0.59375q0.203125 0.265625 0.640625 0.4375q0.25 0.09375 1.46875 0.4375q1.765625 0.46875 2.46875 0.765625q0.703125 0.296875 1.09375 0.875q0.40625 0.578125 0.40625 1.4375q0 0.828125 -0.484375 1.578125q-0.484375 0.734375 -1.40625 1.140625q-0.921875 0.390625 -2.078125 0.390625q-1.921875 0 -2.9375 -0.796875q-1.0 -0.796875 -1.28125 -2.359375z" fill-rule="nonzero"></path><path fill="#000000" fill-opacity="0.0" d="m368.12878 92.600525c-12.943054 0 -26.129944 29.131691 -25.886139 52.773758c0.24380493 23.64206 13.918335 41.79451 27.714722 52.773758c13.796417 10.979248 27.714722 14.785294 27.714722 29.570587" fill-rule="nonzero"></path><path stroke="#3c78d8" stroke-width="4.0" stroke-linejoin="round" stroke-linecap="butt" stroke-dasharray="16.0,12.0" d="m368.12878 92.600525c-12.943054 0 -26.129944 29.131691 -25.886139 52.773758c0.24380493 23.64206 13.918335 41.79451 27.714722 52.773758c13.796417 10.979248 27.714722 14.785294 27.714722 29.570587" fill-rule="nonzero"></path><path fill="#000000" fill-opacity="0.0" d="m397.68634 336.15485c0 10.433075 -29.543304 15.649628 -59.08661 20.86615c-29.543304 5.216522 -59.08661 10.433075 -59.08661 20.86615" fill-rule="nonzero"></path><path stroke="#f6b26b" stroke-width="4.0" stroke-linejoin="round" stroke-linecap="butt" stroke-dasharray="16.0,12.0,4.0,12.0" d="m397.68634 336.15485c0 10.433075 -29.543304 15.649628 -59.08661 20.86615c-29.543304 5.216522 -59.08661 10.433075 -59.08661 20.86615" fill-rule="nonzero"></path><path fill="#000000" fill-opacity="0.0" d="m279.51312 489.98163c0 26.910156 86.055115 40.363647 172.11023 53.820312c86.055115 13.456665 172.11023 26.916626 172.11023 53.833252" fill-rule="nonzero"></path><path stroke="#f6b26b" stroke-width="4.0" stroke-linejoin="round" stroke-linecap="butt" stroke-dasharray="16.0,12.0,4.0,12.0" d="m279.51312 489.98163c0 26.910156 86.055115 40.363647 172.11023 53.820312c86.055115 13.456665 172.11023 26.916626 172.11023 53.833252" fill-rule="nonzero"></path><path fill="#000000" fill-opacity="0.0" d="m397.68634 336.15485c0 2.7244873 20.57483 0.2324524 41.149628 5.449005c20.574799 5.216522 41.149597 18.141632 41.149597 36.283295" fill-rule="nonzero"></path><path stroke="#cc0000" stroke-width="4.0" stroke-linejoin="round" stroke-linecap="butt" stroke-dasharray="32.0,12.0" d="m397.68634 336.15485c0 2.7244873 20.57483 0.2324524 41.149628 5.449005c20.574799 5.216522 41.149597 18.141632 41.149597 36.283295" fill-rule="nonzero"></path><path fill="#000000" fill-opacity="0.0" d="m368.12878 92.600525c-28.734985 0 -55.608215 29.131691 -57.47 52.773758c-1.8617859 23.64206 21.287903 41.79451 43.506653 52.773758c22.21878 10.979248 43.506653 14.785294 43.506653 29.570587" fill-rule="nonzero"></path><path stroke="#cc0000" stroke-width="4.0" stroke-linejoin="round" stroke-linecap="butt" stroke-dasharray="32.0,12.0" d="m368.12878 92.600525c-28.734985 0 -55.608215 29.131691 -57.47 52.773758c-1.8617859 23.64206 21.287903 41.79451 43.506653 52.773758c22.21878 10.979248 43.506653 14.785294 43.506653 29.570587" fill-rule="nonzero"></path><path fill="#000000" fill-opacity="0.0" d="m479.9987 489.98163c0 22.910156 -41.73227 34.363647 -83.46457 45.820374c-41.73227 11.456665 -83.46457 22.916565 -83.46457 45.83319" fill-rule="nonzero"></path><path stroke="#3c78d8" stroke-width="4.0" stroke-linejoin="round" stroke-linecap="butt" stroke-dasharray="16.0,12.0" d="m479.9987 489.98163c0 22.910156 -41.73227 34.363647 -83.46457 45.820374c-41.73227 11.456665 -83.46457 22.916565 -83.46457 45.83319" fill-rule="nonzero"></path></g></svg>

